<?xml version="1.0" encoding="us-ascii" standalone="no"?><svg xmlns="http://www.w3.org/2000/svg" xmlns:xlink="http://www.w3.org/1999/xlink" contentStyleType="text/css" height="754px" preserveAspectRatio="none" style="width:2120px;height:754px;background:#FFFFFF;" version="1.1" viewBox="0 0 2120 754" width="2120px" zoomAndPan="magnify"><defs/><g><!--class Emulator--><g id="elem_Emulator"><rect codeLine="2" fill="#F1F1F1" height="105.2038" id="Emulator" rx="2.5" ry="2.5" style="stroke:#181818;stroke-width:0.5;" width="229" x="1799" y="7"/><ellipse cx="1878.75" cy="23" fill="#ADD1B2" rx="11" ry="11" style="stroke:#181818;stroke-width:1.0;"/><path d="M1881.7188,28.6406 Q1881.1406,28.9375 1880.5,29.0781 Q1879.8594,29.2344 1879.1563,29.2344 Q1876.6563,29.2344 1875.3281,27.5938 Q1874.0156,25.9375 1874.0156,22.8125 Q1874.0156,19.6875 1875.3281,18.0313 Q1876.6563,16.375 1879.1563,16.375 Q1879.8594,16.375 1880.5,16.5313 Q1881.1563,16.6875 1881.7188,16.9844 L1881.7188,19.7031 Q1881.0938,19.125 1880.5,18.8594 Q1879.9063,18.5781 1879.2813,18.5781 Q1877.9375,18.5781 1877.25,19.6563 Q1876.5625,20.7188 1876.5625,22.8125 Q1876.5625,24.9063 1877.25,25.9844 Q1877.9375,27.0469 1879.2813,27.0469 Q1879.9063,27.0469 1880.5,26.7813 Q1881.0938,26.5 1881.7188,25.9219 L1881.7188,28.6406 Z " fill="#000000"/><text fill="#000000" font-family="sans-serif" font-size="14" lengthAdjust="spacing" textLength="61" x="1899.25" y="28.432">Emulator</text><line style="stroke:#181818;stroke-width:0.5;" x1="1800" x2="2027" y1="39" y2="39"/><line style="stroke:#181818;stroke-width:0.5;" x1="1800" x2="2027" y1="47" y2="47"/><ellipse cx="1810" cy="62.034" fill="#84BE84" rx="3" ry="3" style="stroke:#038048;stroke-width:1.0;"/><text fill="#000000" font-family="sans-serif" font-size="14" lengthAdjust="spacing" textLength="39" x="1819" y="65.9659">start()</text><ellipse cx="1810" cy="81.1019" fill="#84BE84" rx="3" ry="3" style="stroke:#038048;stroke-width:1.0;"/><text fill="#000000" font-family="sans-serif" font-size="14" lengthAdjust="spacing" textLength="37" x="1819" y="85.0339">stop()</text><ellipse cx="1810" cy="100.1698" fill="#84BE84" rx="3" ry="3" style="stroke:#038048;stroke-width:1.0;"/><text fill="#000000" font-family="sans-serif" font-size="14" lengthAdjust="spacing" textLength="203" x="1819" y="104.1018">loadProgram(program: String)</text></g><!--class FileReader--><g id="elem_FileReader"><rect codeLine="8" fill="#F1F1F1" height="48" id="FileReader" rx="2.5" ry="2.5" style="stroke:#181818;stroke-width:0.5;" width="103" x="1746" y="172"/><ellipse cx="1761" cy="188" fill="#ADD1B2" rx="11" ry="11" style="stroke:#181818;stroke-width:1.0;"/><path d="M1763.9688,193.6406 Q1763.3906,193.9375 1762.75,194.0781 Q1762.1094,194.2344 1761.4063,194.2344 Q1758.9063,194.2344 1757.5781,192.5938 Q1756.2656,190.9375 1756.2656,187.8125 Q1756.2656,184.6875 1757.5781,183.0313 Q1758.9063,181.375 1761.4063,181.375 Q1762.1094,181.375 1762.75,181.5313 Q1763.4063,181.6875 1763.9688,181.9844 L1763.9688,184.7031 Q1763.3438,184.125 1762.75,183.8594 Q1762.1563,183.5781 1761.5313,183.5781 Q1760.1875,183.5781 1759.5,184.6563 Q1758.8125,185.7188 1758.8125,187.8125 Q1758.8125,189.9063 1759.5,190.9844 Q1760.1875,192.0469 1761.5313,192.0469 Q1762.1563,192.0469 1762.75,191.7813 Q1763.3438,191.5 1763.9688,190.9219 L1763.9688,193.6406 Z " fill="#000000"/><text fill="#000000" font-family="sans-serif" font-size="14" lengthAdjust="spacing" textLength="71" x="1775" y="193.432">FileReader</text><line style="stroke:#181818;stroke-width:0.5;" x1="1747" x2="1848" y1="204" y2="204"/><line style="stroke:#181818;stroke-width:0.5;" x1="1747" x2="1848" y1="212" y2="212"/></g><!--class MemoryAdapter--><g id="elem_MemoryAdapter"><rect codeLine="10" fill="#F1F1F1" height="86.1358" id="MemoryAdapter" rx="2.5" ry="2.5" style="stroke:#181818;stroke-width:0.5;" width="230" x="1663.5" y="280"/><ellipse cx="1723.25" cy="296" fill="#A9DCDF" rx="11" ry="11" style="stroke:#181818;stroke-width:1.0;"/><path d="M1723.3594,291.3438 L1722.2031,296.4219 L1724.5313,296.4219 L1723.3594,291.3438 Z M1721.875,289.1094 L1724.8594,289.1094 L1728.2188,301.5 L1725.7656,301.5 L1725,298.4375 L1721.7188,298.4375 L1720.9688,301.5 L1718.5313,301.5 L1721.875,289.1094 Z " fill="#000000"/><text fill="#000000" font-family="sans-serif" font-size="14" font-style="italic" lengthAdjust="spacing" textLength="102" x="1743.75" y="301.432">MemoryAdapter</text><line style="stroke:#181818;stroke-width:0.5;" x1="1664.5" x2="1892.5" y1="312" y2="312"/><line style="stroke:#181818;stroke-width:0.5;" x1="1664.5" x2="1892.5" y1="320" y2="320"/><ellipse cx="1674.5" cy="335.034" fill="#84BE84" rx="3" ry="3" style="stroke:#038048;stroke-width:1.0;"/><text fill="#000000" font-family="sans-serif" font-size="14" lengthAdjust="spacing" textLength="157" x="1683.5" y="338.9659">read(address: Int): Byte</text><ellipse cx="1674.5" cy="354.1019" fill="#84BE84" rx="3" ry="3" style="stroke:#038048;stroke-width:1.0;"/><text fill="#000000" font-family="sans-serif" font-size="14" lengthAdjust="spacing" textLength="204" x="1683.5" y="358.0339">write(address: Int, value: Byte)</text></g><!--class RAM--><g id="elem_RAM"><rect codeLine="15" fill="#F1F1F1" height="48" id="RAM" rx="2.5" ry="2.5" style="stroke:#181818;stroke-width:0.5;" width="63" x="1648" y="426"/><ellipse cx="1663" cy="442" fill="#ADD1B2" rx="11" ry="11" style="stroke:#181818;stroke-width:1.0;"/><path d="M1665.9688,447.6406 Q1665.3906,447.9375 1664.75,448.0781 Q1664.1094,448.2344 1663.4063,448.2344 Q1660.9063,448.2344 1659.5781,446.5938 Q1658.2656,444.9375 1658.2656,441.8125 Q1658.2656,438.6875 1659.5781,437.0313 Q1660.9063,435.375 1663.4063,435.375 Q1664.1094,435.375 1664.75,435.5313 Q1665.4063,435.6875 1665.9688,435.9844 L1665.9688,438.7031 Q1665.3438,438.125 1664.75,437.8594 Q1664.1563,437.5781 1663.5313,437.5781 Q1662.1875,437.5781 1661.5,438.6563 Q1660.8125,439.7188 1660.8125,441.8125 Q1660.8125,443.9063 1661.5,444.9844 Q1662.1875,446.0469 1663.5313,446.0469 Q1664.1563,446.0469 1664.75,445.7813 Q1665.3438,445.5 1665.9688,444.9219 L1665.9688,447.6406 Z " fill="#000000"/><text fill="#000000" font-family="sans-serif" font-size="14" lengthAdjust="spacing" textLength="31" x="1677" y="447.432">RAM</text><line style="stroke:#181818;stroke-width:0.5;" x1="1649" x2="1710" y1="458" y2="458"/><line style="stroke:#181818;stroke-width:0.5;" x1="1649" x2="1710" y1="466" y2="466"/></g><!--class ROM--><g id="elem_ROM"><rect codeLine="16" fill="#F1F1F1" height="48" id="ROM" rx="2.5" ry="2.5" style="stroke:#181818;stroke-width:0.5;" width="65" x="1746" y="426"/><ellipse cx="1761" cy="442" fill="#ADD1B2" rx="11" ry="11" style="stroke:#181818;stroke-width:1.0;"/><path d="M1763.9688,447.6406 Q1763.3906,447.9375 1762.75,448.0781 Q1762.1094,448.2344 1761.4063,448.2344 Q1758.9063,448.2344 1757.5781,446.5938 Q1756.2656,444.9375 1756.2656,441.8125 Q1756.2656,438.6875 1757.5781,437.0313 Q1758.9063,435.375 1761.4063,435.375 Q1762.1094,435.375 1762.75,435.5313 Q1763.4063,435.6875 1763.9688,435.9844 L1763.9688,438.7031 Q1763.3438,438.125 1762.75,437.8594 Q1762.1563,437.5781 1761.5313,437.5781 Q1760.1875,437.5781 1759.5,438.6563 Q1758.8125,439.7188 1758.8125,441.8125 Q1758.8125,443.9063 1759.5,444.9844 Q1760.1875,446.0469 1761.5313,446.0469 Q1762.1563,446.0469 1762.75,445.7813 Q1763.3438,445.5 1763.9688,444.9219 L1763.9688,447.6406 Z " fill="#000000"/><text fill="#000000" font-family="sans-serif" font-size="14" lengthAdjust="spacing" textLength="33" x="1775" y="447.432">ROM</text><line style="stroke:#181818;stroke-width:0.5;" x1="1747" x2="1810" y1="458" y2="458"/><line style="stroke:#181818;stroke-width:0.5;" x1="1747" x2="1810" y1="466" y2="466"/></g><!--class CPU--><g id="elem_CPU"><rect codeLine="18" fill="#F1F1F1" height="48" id="CPU" rx="2.5" ry="2.5" style="stroke:#181818;stroke-width:0.5;" width="59" x="1884" y="172"/><ellipse cx="1899" cy="188" fill="#ADD1B2" rx="11" ry="11" style="stroke:#181818;stroke-width:1.0;"/><path d="M1901.9688,193.6406 Q1901.3906,193.9375 1900.75,194.0781 Q1900.1094,194.2344 1899.4063,194.2344 Q1896.9063,194.2344 1895.5781,192.5938 Q1894.2656,190.9375 1894.2656,187.8125 Q1894.2656,184.6875 1895.5781,183.0313 Q1896.9063,181.375 1899.4063,181.375 Q1900.1094,181.375 1900.75,181.5313 Q1901.4063,181.6875 1901.9688,181.9844 L1901.9688,184.7031 Q1901.3438,184.125 1900.75,183.8594 Q1900.1563,183.5781 1899.5313,183.5781 Q1898.1875,183.5781 1897.5,184.6563 Q1896.8125,185.7188 1896.8125,187.8125 Q1896.8125,189.9063 1897.5,190.9844 Q1898.1875,192.0469 1899.5313,192.0469 Q1900.1563,192.0469 1900.75,191.7813 Q1901.3438,191.5 1901.9688,190.9219 L1901.9688,193.6406 Z " fill="#000000"/><text fill="#000000" font-family="sans-serif" font-size="14" lengthAdjust="spacing" textLength="27" x="1913" y="193.432">CPU</text><line style="stroke:#181818;stroke-width:0.5;" x1="1885" x2="1942" y1="204" y2="204"/><line style="stroke:#181818;stroke-width:0.5;" x1="1885" x2="1942" y1="212" y2="212"/></g><!--class Register--><g id="elem_Register"><rect codeLine="19" fill="#F1F1F1" height="48" id="Register" rx="2.5" ry="2.5" style="stroke:#181818;stroke-width:0.5;" width="88" x="1928.5" y="299"/><ellipse cx="1943.5" cy="315" fill="#ADD1B2" rx="11" ry="11" style="stroke:#181818;stroke-width:1.0;"/><path d="M1946.4688,320.6406 Q1945.8906,320.9375 1945.25,321.0781 Q1944.6094,321.2344 1943.9063,321.2344 Q1941.4063,321.2344 1940.0781,319.5938 Q1938.7656,317.9375 1938.7656,314.8125 Q1938.7656,311.6875 1940.0781,310.0313 Q1941.4063,308.375 1943.9063,308.375 Q1944.6094,308.375 1945.25,308.5313 Q1945.9063,308.6875 1946.4688,308.9844 L1946.4688,311.7031 Q1945.8438,311.125 1945.25,310.8594 Q1944.6563,310.5781 1944.0313,310.5781 Q1942.6875,310.5781 1942,311.6563 Q1941.3125,312.7188 1941.3125,314.8125 Q1941.3125,316.9063 1942,317.9844 Q1942.6875,319.0469 1944.0313,319.0469 Q1944.6563,319.0469 1945.25,318.7813 Q1945.8438,318.5 1946.4688,317.9219 L1946.4688,320.6406 Z " fill="#000000"/><text fill="#000000" font-family="sans-serif" font-size="14" lengthAdjust="spacing" textLength="56" x="1957.5" y="320.432">Register</text><line style="stroke:#181818;stroke-width:0.5;" x1="1929.5" x2="2015.5" y1="331" y2="331"/><line style="stroke:#181818;stroke-width:0.5;" x1="1929.5" x2="2015.5" y1="339" y2="339"/></g><!--class InstructionTemplate--><g id="elem_InstructionTemplate"><rect codeLine="21" fill="#F1F1F1" height="48" id="InstructionTemplate" rx="2.5" ry="2.5" style="stroke:#181818;stroke-width:0.5;" width="159" x="806" y="299"/><ellipse cx="821" cy="315" fill="#A9DCDF" rx="11" ry="11" style="stroke:#181818;stroke-width:1.0;"/><path d="M821.1094,310.3438 L819.9531,315.4219 L822.2813,315.4219 L821.1094,310.3438 Z M819.625,308.1094 L822.6094,308.1094 L825.9688,320.5 L823.5156,320.5 L822.75,317.4375 L819.4688,317.4375 L818.7188,320.5 L816.2813,320.5 L819.625,308.1094 Z " fill="#000000"/><text fill="#000000" font-family="sans-serif" font-size="14" font-style="italic" lengthAdjust="spacing" textLength="127" x="835" y="320.432">InstructionTemplate</text><line style="stroke:#181818;stroke-width:0.5;" x1="807" x2="964" y1="331" y2="331"/><line style="stroke:#181818;stroke-width:0.5;" x1="807" x2="964" y1="339" y2="339"/></g><!--class StoreInstruction--><g id="elem_StoreInstruction"><rect codeLine="22" fill="#F1F1F1" height="48" id="StoreInstruction" rx="2.5" ry="2.5" style="stroke:#181818;stroke-width:0.5;" width="141" x="128" y="426"/><ellipse cx="143" cy="442" fill="#ADD1B2" rx="11" ry="11" style="stroke:#181818;stroke-width:1.0;"/><path d="M145.9688,447.6406 Q145.3906,447.9375 144.75,448.0781 Q144.1094,448.2344 143.4063,448.2344 Q140.9063,448.2344 139.5781,446.5938 Q138.2656,444.9375 138.2656,441.8125 Q138.2656,438.6875 139.5781,437.0313 Q140.9063,435.375 143.4063,435.375 Q144.1094,435.375 144.75,435.5313 Q145.4063,435.6875 145.9688,435.9844 L145.9688,438.7031 Q145.3438,438.125 144.75,437.8594 Q144.1563,437.5781 143.5313,437.5781 Q142.1875,437.5781 141.5,438.6563 Q140.8125,439.7188 140.8125,441.8125 Q140.8125,443.9063 141.5,444.9844 Q142.1875,446.0469 143.5313,446.0469 Q144.1563,446.0469 144.75,445.7813 Q145.3438,445.5 145.9688,444.9219 L145.9688,447.6406 Z " fill="#000000"/><text fill="#000000" font-family="sans-serif" font-size="14" lengthAdjust="spacing" textLength="109" x="157" y="447.432">StoreInstruction</text><line style="stroke:#181818;stroke-width:0.5;" x1="129" x2="268" y1="458" y2="458"/><line style="stroke:#181818;stroke-width:0.5;" x1="129" x2="268" y1="466" y2="466"/></g><!--class AddInstruction--><g id="elem_AddInstruction"><rect codeLine="23" fill="#F1F1F1" height="48" id="AddInstruction" rx="2.5" ry="2.5" style="stroke:#181818;stroke-width:0.5;" width="133" x="304" y="426"/><ellipse cx="319" cy="442" fill="#ADD1B2" rx="11" ry="11" style="stroke:#181818;stroke-width:1.0;"/><path d="M321.9688,447.6406 Q321.3906,447.9375 320.75,448.0781 Q320.1094,448.2344 319.4063,448.2344 Q316.9063,448.2344 315.5781,446.5938 Q314.2656,444.9375 314.2656,441.8125 Q314.2656,438.6875 315.5781,437.0313 Q316.9063,435.375 319.4063,435.375 Q320.1094,435.375 320.75,435.5313 Q321.4063,435.6875 321.9688,435.9844 L321.9688,438.7031 Q321.3438,438.125 320.75,437.8594 Q320.1563,437.5781 319.5313,437.5781 Q318.1875,437.5781 317.5,438.6563 Q316.8125,439.7188 316.8125,441.8125 Q316.8125,443.9063 317.5,444.9844 Q318.1875,446.0469 319.5313,446.0469 Q320.1563,446.0469 320.75,445.7813 Q321.3438,445.5 321.9688,444.9219 L321.9688,447.6406 Z " fill="#000000"/><text fill="#000000" font-family="sans-serif" font-size="14" lengthAdjust="spacing" textLength="101" x="333" y="447.432">AddInstruction</text><line style="stroke:#181818;stroke-width:0.5;" x1="305" x2="436" y1="458" y2="458"/><line style="stroke:#181818;stroke-width:0.5;" x1="305" x2="436" y1="466" y2="466"/></g><!--class SubInstruction--><g id="elem_SubInstruction"><rect codeLine="24" fill="#F1F1F1" height="48" id="SubInstruction" rx="2.5" ry="2.5" style="stroke:#181818;stroke-width:0.5;" width="132" x="472.5" y="426"/><ellipse cx="487.5" cy="442" fill="#ADD1B2" rx="11" ry="11" style="stroke:#181818;stroke-width:1.0;"/><path d="M490.4688,447.6406 Q489.8906,447.9375 489.25,448.0781 Q488.6094,448.2344 487.9063,448.2344 Q485.4063,448.2344 484.0781,446.5938 Q482.7656,444.9375 482.7656,441.8125 Q482.7656,438.6875 484.0781,437.0313 Q485.4063,435.375 487.9063,435.375 Q488.6094,435.375 489.25,435.5313 Q489.9063,435.6875 490.4688,435.9844 L490.4688,438.7031 Q489.8438,438.125 489.25,437.8594 Q488.6563,437.5781 488.0313,437.5781 Q486.6875,437.5781 486,438.6563 Q485.3125,439.7188 485.3125,441.8125 Q485.3125,443.9063 486,444.9844 Q486.6875,446.0469 488.0313,446.0469 Q488.6563,446.0469 489.25,445.7813 Q489.8438,445.5 490.4688,444.9219 L490.4688,447.6406 Z " fill="#000000"/><text fill="#000000" font-family="sans-serif" font-size="14" lengthAdjust="spacing" textLength="100" x="501.5" y="447.432">SubInstruction</text><line style="stroke:#181818;stroke-width:0.5;" x1="473.5" x2="603.5" y1="458" y2="458"/><line style="stroke:#181818;stroke-width:0.5;" x1="473.5" x2="603.5" y1="466" y2="466"/></g><!--class ReadInstruction--><g id="elem_ReadInstruction"><rect codeLine="25" fill="#F1F1F1" height="48" id="ReadInstruction" rx="2.5" ry="2.5" style="stroke:#181818;stroke-width:0.5;" width="140" x="639.5" y="426"/><ellipse cx="654.5" cy="442" fill="#ADD1B2" rx="11" ry="11" style="stroke:#181818;stroke-width:1.0;"/><path d="M657.4688,447.6406 Q656.8906,447.9375 656.25,448.0781 Q655.6094,448.2344 654.9063,448.2344 Q652.4063,448.2344 651.0781,446.5938 Q649.7656,444.9375 649.7656,441.8125 Q649.7656,438.6875 651.0781,437.0313 Q652.4063,435.375 654.9063,435.375 Q655.6094,435.375 656.25,435.5313 Q656.9063,435.6875 657.4688,435.9844 L657.4688,438.7031 Q656.8438,438.125 656.25,437.8594 Q655.6563,437.5781 655.0313,437.5781 Q653.6875,437.5781 653,438.6563 Q652.3125,439.7188 652.3125,441.8125 Q652.3125,443.9063 653,444.9844 Q653.6875,446.0469 655.0313,446.0469 Q655.6563,446.0469 656.25,445.7813 Q656.8438,445.5 657.4688,444.9219 L657.4688,447.6406 Z " fill="#000000"/><text fill="#000000" font-family="sans-serif" font-size="14" lengthAdjust="spacing" textLength="108" x="668.5" y="447.432">ReadInstruction</text><line style="stroke:#181818;stroke-width:0.5;" x1="640.5" x2="778.5" y1="458" y2="458"/><line style="stroke:#181818;stroke-width:0.5;" x1="640.5" x2="778.5" y1="466" y2="466"/></g><!--class WriteInstruction--><g id="elem_WriteInstruction"><rect codeLine="26" fill="#F1F1F1" height="48" id="WriteInstruction" rx="2.5" ry="2.5" style="stroke:#181818;stroke-width:0.5;" width="142" x="814.5" y="426"/><ellipse cx="829.5" cy="442" fill="#ADD1B2" rx="11" ry="11" style="stroke:#181818;stroke-width:1.0;"/><path d="M832.4688,447.6406 Q831.8906,447.9375 831.25,448.0781 Q830.6094,448.2344 829.9063,448.2344 Q827.4063,448.2344 826.0781,446.5938 Q824.7656,444.9375 824.7656,441.8125 Q824.7656,438.6875 826.0781,437.0313 Q827.4063,435.375 829.9063,435.375 Q830.6094,435.375 831.25,435.5313 Q831.9063,435.6875 832.4688,435.9844 L832.4688,438.7031 Q831.8438,438.125 831.25,437.8594 Q830.6563,437.5781 830.0313,437.5781 Q828.6875,437.5781 828,438.6563 Q827.3125,439.7188 827.3125,441.8125 Q827.3125,443.9063 828,444.9844 Q828.6875,446.0469 830.0313,446.0469 Q830.6563,446.0469 831.25,445.7813 Q831.8438,445.5 832.4688,444.9219 L832.4688,447.6406 Z " fill="#000000"/><text fill="#000000" font-family="sans-serif" font-size="14" lengthAdjust="spacing" textLength="110" x="843.5" y="447.432">WriteInstruction</text><line style="stroke:#181818;stroke-width:0.5;" x1="815.5" x2="955.5" y1="458" y2="458"/><line style="stroke:#181818;stroke-width:0.5;" x1="815.5" x2="955.5" y1="466" y2="466"/></g><!--class JumpInstruction--><g id="elem_JumpInstruction"><rect codeLine="27" fill="#F1F1F1" height="48" id="JumpInstruction" rx="2.5" ry="2.5" style="stroke:#181818;stroke-width:0.5;" width="141" x="992" y="426"/><ellipse cx="1007" cy="442" fill="#ADD1B2" rx="11" ry="11" style="stroke:#181818;stroke-width:1.0;"/><path d="M1009.9688,447.6406 Q1009.3906,447.9375 1008.75,448.0781 Q1008.1094,448.2344 1007.4063,448.2344 Q1004.9063,448.2344 1003.5781,446.5938 Q1002.2656,444.9375 1002.2656,441.8125 Q1002.2656,438.6875 1003.5781,437.0313 Q1004.9063,435.375 1007.4063,435.375 Q1008.1094,435.375 1008.75,435.5313 Q1009.4063,435.6875 1009.9688,435.9844 L1009.9688,438.7031 Q1009.3438,438.125 1008.75,437.8594 Q1008.1563,437.5781 1007.5313,437.5781 Q1006.1875,437.5781 1005.5,438.6563 Q1004.8125,439.7188 1004.8125,441.8125 Q1004.8125,443.9063 1005.5,444.9844 Q1006.1875,446.0469 1007.5313,446.0469 Q1008.1563,446.0469 1008.75,445.7813 Q1009.3438,445.5 1009.9688,444.9219 L1009.9688,447.6406 Z " fill="#000000"/><text fill="#000000" font-family="sans-serif" font-size="14" lengthAdjust="spacing" textLength="109" x="1021" y="447.432">JumpInstruction</text><line style="stroke:#181818;stroke-width:0.5;" x1="993" x2="1132" y1="458" y2="458"/><line style="stroke:#181818;stroke-width:0.5;" x1="993" x2="1132" y1="466" y2="466"/></g><!--class ReadKeyboardInstruction--><g id="elem_ReadKeyboardInstruction"><rect codeLine="28" fill="#F1F1F1" height="48" id="ReadKeyboardInstruction" rx="2.5" ry="2.5" style="stroke:#181818;stroke-width:0.5;" width="204" x="1168.5" y="426"/><ellipse cx="1183.5" cy="442" fill="#ADD1B2" rx="11" ry="11" style="stroke:#181818;stroke-width:1.0;"/><path d="M1186.4688,447.6406 Q1185.8906,447.9375 1185.25,448.0781 Q1184.6094,448.2344 1183.9063,448.2344 Q1181.4063,448.2344 1180.0781,446.5938 Q1178.7656,444.9375 1178.7656,441.8125 Q1178.7656,438.6875 1180.0781,437.0313 Q1181.4063,435.375 1183.9063,435.375 Q1184.6094,435.375 1185.25,435.5313 Q1185.9063,435.6875 1186.4688,435.9844 L1186.4688,438.7031 Q1185.8438,438.125 1185.25,437.8594 Q1184.6563,437.5781 1184.0313,437.5781 Q1182.6875,437.5781 1182,438.6563 Q1181.3125,439.7188 1181.3125,441.8125 Q1181.3125,443.9063 1182,444.9844 Q1182.6875,446.0469 1184.0313,446.0469 Q1184.6563,446.0469 1185.25,445.7813 Q1185.8438,445.5 1186.4688,444.9219 L1186.4688,447.6406 Z " fill="#000000"/><text fill="#000000" font-family="sans-serif" font-size="14" lengthAdjust="spacing" textLength="172" x="1197.5" y="447.432">ReadKeyboardInstruction</text><line style="stroke:#181818;stroke-width:0.5;" x1="1169.5" x2="1371.5" y1="458" y2="458"/><line style="stroke:#181818;stroke-width:0.5;" x1="1169.5" x2="1371.5" y1="466" y2="466"/></g><!--class SwitchMemoryInstruction--><g id="elem_SwitchMemoryInstruction"><rect codeLine="29" fill="#F1F1F1" height="48" id="SwitchMemoryInstruction" rx="2.5" ry="2.5" style="stroke:#181818;stroke-width:0.5;" width="205" x="1408" y="426"/><ellipse cx="1423" cy="442" fill="#ADD1B2" rx="11" ry="11" style="stroke:#181818;stroke-width:1.0;"/><path d="M1425.9688,447.6406 Q1425.3906,447.9375 1424.75,448.0781 Q1424.1094,448.2344 1423.4063,448.2344 Q1420.9063,448.2344 1419.5781,446.5938 Q1418.2656,444.9375 1418.2656,441.8125 Q1418.2656,438.6875 1419.5781,437.0313 Q1420.9063,435.375 1423.4063,435.375 Q1424.1094,435.375 1424.75,435.5313 Q1425.4063,435.6875 1425.9688,435.9844 L1425.9688,438.7031 Q1425.3438,438.125 1424.75,437.8594 Q1424.1563,437.5781 1423.5313,437.5781 Q1422.1875,437.5781 1421.5,438.6563 Q1420.8125,439.7188 1420.8125,441.8125 Q1420.8125,443.9063 1421.5,444.9844 Q1422.1875,446.0469 1423.5313,446.0469 Q1424.1563,446.0469 1424.75,445.7813 Q1425.3438,445.5 1425.9688,444.9219 L1425.9688,447.6406 Z " fill="#000000"/><text fill="#000000" font-family="sans-serif" font-size="14" lengthAdjust="spacing" textLength="173" x="1437" y="447.432">SwitchMemoryInstruction</text><line style="stroke:#181818;stroke-width:0.5;" x1="1409" x2="1612" y1="458" y2="458"/><line style="stroke:#181818;stroke-width:0.5;" x1="1409" x2="1612" y1="466" y2="466"/></g><!--class SkipEqualInstruction--><g id="elem_SkipEqualInstruction"><rect codeLine="30" fill="#F1F1F1" height="48" id="SkipEqualInstruction" rx="2.5" ry="2.5" style="stroke:#181818;stroke-width:0.5;" width="172" x="1479.5" y="172"/><ellipse cx="1494.5" cy="188" fill="#ADD1B2" rx="11" ry="11" style="stroke:#181818;stroke-width:1.0;"/><path d="M1497.4688,193.6406 Q1496.8906,193.9375 1496.25,194.0781 Q1495.6094,194.2344 1494.9063,194.2344 Q1492.4063,194.2344 1491.0781,192.5938 Q1489.7656,190.9375 1489.7656,187.8125 Q1489.7656,184.6875 1491.0781,183.0313 Q1492.4063,181.375 1494.9063,181.375 Q1495.6094,181.375 1496.25,181.5313 Q1496.9063,181.6875 1497.4688,181.9844 L1497.4688,184.7031 Q1496.8438,184.125 1496.25,183.8594 Q1495.6563,183.5781 1495.0313,183.5781 Q1493.6875,183.5781 1493,184.6563 Q1492.3125,185.7188 1492.3125,187.8125 Q1492.3125,189.9063 1493,190.9844 Q1493.6875,192.0469 1495.0313,192.0469 Q1495.6563,192.0469 1496.25,191.7813 Q1496.8438,191.5 1497.4688,190.9219 L1497.4688,193.6406 Z " fill="#000000"/><text fill="#000000" font-family="sans-serif" font-size="14" lengthAdjust="spacing" textLength="140" x="1508.5" y="193.432">SkipEqualInstruction</text><line style="stroke:#181818;stroke-width:0.5;" x1="1480.5" x2="1650.5" y1="204" y2="204"/><line style="stroke:#181818;stroke-width:0.5;" x1="1480.5" x2="1650.5" y1="212" y2="212"/></g><!--class SkipNotEqualInstruction--><g id="elem_SkipNotEqualInstruction"><rect codeLine="31" fill="#F1F1F1" height="48" id="SkipNotEqualInstruction" rx="2.5" ry="2.5" style="stroke:#181818;stroke-width:0.5;" width="196" x="1248.5" y="172"/><ellipse cx="1263.5" cy="188" fill="#ADD1B2" rx="11" ry="11" style="stroke:#181818;stroke-width:1.0;"/><path d="M1266.4688,193.6406 Q1265.8906,193.9375 1265.25,194.0781 Q1264.6094,194.2344 1263.9063,194.2344 Q1261.4063,194.2344 1260.0781,192.5938 Q1258.7656,190.9375 1258.7656,187.8125 Q1258.7656,184.6875 1260.0781,183.0313 Q1261.4063,181.375 1263.9063,181.375 Q1264.6094,181.375 1265.25,181.5313 Q1265.9063,181.6875 1266.4688,181.9844 L1266.4688,184.7031 Q1265.8438,184.125 1265.25,183.8594 Q1264.6563,183.5781 1264.0313,183.5781 Q1262.6875,183.5781 1262,184.6563 Q1261.3125,185.7188 1261.3125,187.8125 Q1261.3125,189.9063 1262,190.9844 Q1262.6875,192.0469 1264.0313,192.0469 Q1264.6563,192.0469 1265.25,191.7813 Q1265.8438,191.5 1266.4688,190.9219 L1266.4688,193.6406 Z " fill="#000000"/><text fill="#000000" font-family="sans-serif" font-size="14" lengthAdjust="spacing" textLength="164" x="1277.5" y="193.432">SkipNotEqualInstruction</text><line style="stroke:#181818;stroke-width:0.5;" x1="1249.5" x2="1443.5" y1="204" y2="204"/><line style="stroke:#181818;stroke-width:0.5;" x1="1249.5" x2="1443.5" y1="212" y2="212"/></g><!--class SetAInstruction--><g id="elem_SetAInstruction"><rect codeLine="32" fill="#F1F1F1" height="48" id="SetAInstruction" rx="2.5" ry="2.5" style="stroke:#181818;stroke-width:0.5;" width="136" x="1077.5" y="172"/><ellipse cx="1092.5" cy="188" fill="#ADD1B2" rx="11" ry="11" style="stroke:#181818;stroke-width:1.0;"/><path d="M1095.4688,193.6406 Q1094.8906,193.9375 1094.25,194.0781 Q1093.6094,194.2344 1092.9063,194.2344 Q1090.4063,194.2344 1089.0781,192.5938 Q1087.7656,190.9375 1087.7656,187.8125 Q1087.7656,184.6875 1089.0781,183.0313 Q1090.4063,181.375 1092.9063,181.375 Q1093.6094,181.375 1094.25,181.5313 Q1094.9063,181.6875 1095.4688,181.9844 L1095.4688,184.7031 Q1094.8438,184.125 1094.25,183.8594 Q1093.6563,183.5781 1093.0313,183.5781 Q1091.6875,183.5781 1091,184.6563 Q1090.3125,185.7188 1090.3125,187.8125 Q1090.3125,189.9063 1091,190.9844 Q1091.6875,192.0469 1093.0313,192.0469 Q1093.6563,192.0469 1094.25,191.7813 Q1094.8438,191.5 1095.4688,190.9219 L1095.4688,193.6406 Z " fill="#000000"/><text fill="#000000" font-family="sans-serif" font-size="14" lengthAdjust="spacing" textLength="104" x="1106.5" y="193.432">SetAInstruction</text><line style="stroke:#181818;stroke-width:0.5;" x1="1078.5" x2="1212.5" y1="204" y2="204"/><line style="stroke:#181818;stroke-width:0.5;" x1="1078.5" x2="1212.5" y1="212" y2="212"/></g><!--class SetTInstruction--><g id="elem_SetTInstruction"><rect codeLine="33" fill="#F1F1F1" height="48" id="SetTInstruction" rx="2.5" ry="2.5" style="stroke:#181818;stroke-width:0.5;" width="135" x="907" y="172"/><ellipse cx="922" cy="188" fill="#ADD1B2" rx="11" ry="11" style="stroke:#181818;stroke-width:1.0;"/><path d="M924.9688,193.6406 Q924.3906,193.9375 923.75,194.0781 Q923.1094,194.2344 922.4063,194.2344 Q919.9063,194.2344 918.5781,192.5938 Q917.2656,190.9375 917.2656,187.8125 Q917.2656,184.6875 918.5781,183.0313 Q919.9063,181.375 922.4063,181.375 Q923.1094,181.375 923.75,181.5313 Q924.4063,181.6875 924.9688,181.9844 L924.9688,184.7031 Q924.3438,184.125 923.75,183.8594 Q923.1563,183.5781 922.5313,183.5781 Q921.1875,183.5781 920.5,184.6563 Q919.8125,185.7188 919.8125,187.8125 Q919.8125,189.9063 920.5,190.9844 Q921.1875,192.0469 922.5313,192.0469 Q923.1563,192.0469 923.75,191.7813 Q924.3438,191.5 924.9688,190.9219 L924.9688,193.6406 Z " fill="#000000"/><text fill="#000000" font-family="sans-serif" font-size="14" lengthAdjust="spacing" textLength="103" x="936" y="193.432">SetTInstruction</text><line style="stroke:#181818;stroke-width:0.5;" x1="908" x2="1041" y1="204" y2="204"/><line style="stroke:#181818;stroke-width:0.5;" x1="908" x2="1041" y1="212" y2="212"/></g><!--class ReadTInstruction--><g id="elem_ReadTInstruction"><rect codeLine="34" fill="#F1F1F1" height="48" id="ReadTInstruction" rx="2.5" ry="2.5" style="stroke:#181818;stroke-width:0.5;" width="148" x="723.5" y="172"/><ellipse cx="738.5" cy="188" fill="#ADD1B2" rx="11" ry="11" style="stroke:#181818;stroke-width:1.0;"/><path d="M741.4688,193.6406 Q740.8906,193.9375 740.25,194.0781 Q739.6094,194.2344 738.9063,194.2344 Q736.4063,194.2344 735.0781,192.5938 Q733.7656,190.9375 733.7656,187.8125 Q733.7656,184.6875 735.0781,183.0313 Q736.4063,181.375 738.9063,181.375 Q739.6094,181.375 740.25,181.5313 Q740.9063,181.6875 741.4688,181.9844 L741.4688,184.7031 Q740.8438,184.125 740.25,183.8594 Q739.6563,183.5781 739.0313,183.5781 Q737.6875,183.5781 737,184.6563 Q736.3125,185.7188 736.3125,187.8125 Q736.3125,189.9063 737,190.9844 Q737.6875,192.0469 739.0313,192.0469 Q739.6563,192.0469 740.25,191.7813 Q740.8438,191.5 741.4688,190.9219 L741.4688,193.6406 Z " fill="#000000"/><text fill="#000000" font-family="sans-serif" font-size="14" lengthAdjust="spacing" textLength="116" x="752.5" y="193.432">ReadTInstruction</text><line style="stroke:#181818;stroke-width:0.5;" x1="724.5" x2="870.5" y1="204" y2="204"/><line style="stroke:#181818;stroke-width:0.5;" x1="724.5" x2="870.5" y1="212" y2="212"/></g><!--class ConvertToBaseTenInstruction--><g id="elem_ConvertToBaseTenInstruction"><rect codeLine="35" fill="#F1F1F1" height="48" id="ConvertToBaseTenInstruction" rx="2.5" ry="2.5" style="stroke:#181818;stroke-width:0.5;" width="231" x="457" y="172"/><ellipse cx="472" cy="188" fill="#ADD1B2" rx="11" ry="11" style="stroke:#181818;stroke-width:1.0;"/><path d="M474.9688,193.6406 Q474.3906,193.9375 473.75,194.0781 Q473.1094,194.2344 472.4063,194.2344 Q469.9063,194.2344 468.5781,192.5938 Q467.2656,190.9375 467.2656,187.8125 Q467.2656,184.6875 468.5781,183.0313 Q469.9063,181.375 472.4063,181.375 Q473.1094,181.375 473.75,181.5313 Q474.4063,181.6875 474.9688,181.9844 L474.9688,184.7031 Q474.3438,184.125 473.75,183.8594 Q473.1563,183.5781 472.5313,183.5781 Q471.1875,183.5781 470.5,184.6563 Q469.8125,185.7188 469.8125,187.8125 Q469.8125,189.9063 470.5,190.9844 Q471.1875,192.0469 472.5313,192.0469 Q473.1563,192.0469 473.75,191.7813 Q474.3438,191.5 474.9688,190.9219 L474.9688,193.6406 Z " fill="#000000"/><text fill="#000000" font-family="sans-serif" font-size="14" lengthAdjust="spacing" textLength="199" x="486" y="193.432">ConvertToBaseTenInstruction</text><line style="stroke:#181818;stroke-width:0.5;" x1="458" x2="687" y1="204" y2="204"/><line style="stroke:#181818;stroke-width:0.5;" x1="458" x2="687" y1="212" y2="212"/></g><!--class ConvertByteToASCIIInstruction--><g id="elem_ConvertByteToASCIIInstruction"><rect codeLine="36" fill="#F1F1F1" height="48" id="ConvertByteToASCIIInstruction" rx="2.5" ry="2.5" style="stroke:#181818;stroke-width:0.5;" width="239" x="183" y="172"/><ellipse cx="198" cy="188" fill="#ADD1B2" rx="11" ry="11" style="stroke:#181818;stroke-width:1.0;"/><path d="M200.9688,193.6406 Q200.3906,193.9375 199.75,194.0781 Q199.1094,194.2344 198.4063,194.2344 Q195.9063,194.2344 194.5781,192.5938 Q193.2656,190.9375 193.2656,187.8125 Q193.2656,184.6875 194.5781,183.0313 Q195.9063,181.375 198.4063,181.375 Q199.1094,181.375 199.75,181.5313 Q200.4063,181.6875 200.9688,181.9844 L200.9688,184.7031 Q200.3438,184.125 199.75,183.8594 Q199.1563,183.5781 198.5313,183.5781 Q197.1875,183.5781 196.5,184.6563 Q195.8125,185.7188 195.8125,187.8125 Q195.8125,189.9063 196.5,190.9844 Q197.1875,192.0469 198.5313,192.0469 Q199.1563,192.0469 199.75,191.7813 Q200.3438,191.5 200.9688,190.9219 L200.9688,193.6406 Z " fill="#000000"/><text fill="#000000" font-family="sans-serif" font-size="14" lengthAdjust="spacing" textLength="207" x="212" y="193.432">ConvertByteToASCIIInstruction</text><line style="stroke:#181818;stroke-width:0.5;" x1="184" x2="421" y1="204" y2="204"/><line style="stroke:#181818;stroke-width:0.5;" x1="184" x2="421" y1="212" y2="212"/></g><!--class DrawInstruction--><g id="elem_DrawInstruction"><rect codeLine="37" fill="#F1F1F1" height="48" id="DrawInstruction" rx="2.5" ry="2.5" style="stroke:#181818;stroke-width:0.5;" width="141" x="7" y="172"/><ellipse cx="22" cy="188" fill="#ADD1B2" rx="11" ry="11" style="stroke:#181818;stroke-width:1.0;"/><path d="M24.9688,193.6406 Q24.3906,193.9375 23.75,194.0781 Q23.1094,194.2344 22.4063,194.2344 Q19.9063,194.2344 18.5781,192.5938 Q17.2656,190.9375 17.2656,187.8125 Q17.2656,184.6875 18.5781,183.0313 Q19.9063,181.375 22.4063,181.375 Q23.1094,181.375 23.75,181.5313 Q24.4063,181.6875 24.9688,181.9844 L24.9688,184.7031 Q24.3438,184.125 23.75,183.8594 Q23.1563,183.5781 22.5313,183.5781 Q21.1875,183.5781 20.5,184.6563 Q19.8125,185.7188 19.8125,187.8125 Q19.8125,189.9063 20.5,190.9844 Q21.1875,192.0469 22.5313,192.0469 Q23.1563,192.0469 23.75,191.7813 Q24.3438,191.5 24.9688,190.9219 L24.9688,193.6406 Z " fill="#000000"/><text fill="#000000" font-family="sans-serif" font-size="14" lengthAdjust="spacing" textLength="109" x="36" y="193.432">DrawInstruction</text><line style="stroke:#181818;stroke-width:0.5;" x1="8" x2="147" y1="204" y2="204"/><line style="stroke:#181818;stroke-width:0.5;" x1="8" x2="147" y1="212" y2="212"/></g><!--class Observable--><g id="elem_Observable"><rect codeLine="39" fill="#F1F1F1" height="105.2038" id="Observable" rx="2.5" ry="2.5" style="stroke:#181818;stroke-width:0.5;" width="275" x="1769" y="534"/><ellipse cx="1866.75" cy="550" fill="#B4A7E5" rx="11" ry="11" style="stroke:#181818;stroke-width:1.0;"/><path d="M1862.6719,545.7656 L1862.6719,543.6094 L1870.0625,543.6094 L1870.0625,545.7656 L1867.5938,545.7656 L1867.5938,553.8438 L1870.0625,553.8438 L1870.0625,556 L1862.6719,556 L1862.6719,553.8438 L1865.1406,553.8438 L1865.1406,545.7656 L1862.6719,545.7656 Z " fill="#000000"/><text fill="#000000" font-family="sans-serif" font-size="14" font-style="italic" lengthAdjust="spacing" textLength="71" x="1887.25" y="555.432">Observable</text><line style="stroke:#181818;stroke-width:0.5;" x1="1770" x2="2043" y1="566" y2="566"/><line style="stroke:#181818;stroke-width:0.5;" x1="1770" x2="2043" y1="574" y2="574"/><ellipse cx="1780" cy="589.034" fill="#84BE84" rx="3" ry="3" style="stroke:#038048;stroke-width:1.0;"/><text fill="#000000" font-family="sans-serif" font-size="14" lengthAdjust="spacing" textLength="225" x="1789" y="592.9659">addObserver(observer: Observer)</text><ellipse cx="1780" cy="608.1019" fill="#84BE84" rx="3" ry="3" style="stroke:#038048;stroke-width:1.0;"/><text fill="#000000" font-family="sans-serif" font-size="14" lengthAdjust="spacing" textLength="249" x="1789" y="612.0339">removeObserver(observer: Observer)</text><ellipse cx="1780" cy="627.1698" fill="#84BE84" rx="3" ry="3" style="stroke:#038048;stroke-width:1.0;"/><text fill="#000000" font-family="sans-serif" font-size="14" lengthAdjust="spacing" textLength="115" x="1789" y="631.1018">notifyObservers()</text></g><!--class BufferObserver--><g id="elem_BufferObserver"><rect codeLine="45" fill="#F1F1F1" height="67.0679" id="BufferObserver" rx="2.5" ry="2.5" style="stroke:#181818;stroke-width:0.5;" width="126" x="1607.5" y="553"/><ellipse cx="1622.5" cy="569" fill="#B4A7E5" rx="11" ry="11" style="stroke:#181818;stroke-width:1.0;"/><path d="M1618.4219,564.7656 L1618.4219,562.6094 L1625.8125,562.6094 L1625.8125,564.7656 L1623.3438,564.7656 L1623.3438,572.8438 L1625.8125,572.8438 L1625.8125,575 L1618.4219,575 L1618.4219,572.8438 L1620.8906,572.8438 L1620.8906,564.7656 L1618.4219,564.7656 Z " fill="#000000"/><text fill="#000000" font-family="sans-serif" font-size="14" font-style="italic" lengthAdjust="spacing" textLength="94" x="1636.5" y="574.432">BufferObserver</text><line style="stroke:#181818;stroke-width:0.5;" x1="1608.5" x2="1732.5" y1="585" y2="585"/><line style="stroke:#181818;stroke-width:0.5;" x1="1608.5" x2="1732.5" y1="593" y2="593"/><ellipse cx="1618.5" cy="608.034" fill="#84BE84" rx="3" ry="3" style="stroke:#038048;stroke-width:1.0;"/><text fill="#000000" font-family="sans-serif" font-size="14" lengthAdjust="spacing" textLength="56" x="1627.5" y="611.9659">update()</text></g><!--class Screen--><g id="elem_Screen"><rect codeLine="49" fill="#F1F1F1" height="48" id="Screen" rx="2.5" ry="2.5" style="stroke:#181818;stroke-width:0.5;" width="78" x="1844.5" y="699"/><ellipse cx="1859.5" cy="715" fill="#ADD1B2" rx="11" ry="11" style="stroke:#181818;stroke-width:1.0;"/><path d="M1862.4688,720.6406 Q1861.8906,720.9375 1861.25,721.0781 Q1860.6094,721.2344 1859.9063,721.2344 Q1857.4063,721.2344 1856.0781,719.5938 Q1854.7656,717.9375 1854.7656,714.8125 Q1854.7656,711.6875 1856.0781,710.0313 Q1857.4063,708.375 1859.9063,708.375 Q1860.6094,708.375 1861.25,708.5313 Q1861.9063,708.6875 1862.4688,708.9844 L1862.4688,711.7031 Q1861.8438,711.125 1861.25,710.8594 Q1860.6563,710.5781 1860.0313,710.5781 Q1858.6875,710.5781 1858,711.6563 Q1857.3125,712.7188 1857.3125,714.8125 Q1857.3125,716.9063 1858,717.9844 Q1858.6875,719.0469 1860.0313,719.0469 Q1860.6563,719.0469 1861.25,718.7813 Q1861.8438,718.5 1862.4688,717.9219 L1862.4688,720.6406 Z " fill="#000000"/><text fill="#000000" font-family="sans-serif" font-size="14" lengthAdjust="spacing" textLength="46" x="1873.5" y="720.432">Screen</text><line style="stroke:#181818;stroke-width:0.5;" x1="1845.5" x2="1921.5" y1="731" y2="731"/><line style="stroke:#181818;stroke-width:0.5;" x1="1845.5" x2="1921.5" y1="739" y2="739"/></g><!--class ScreenBuffer--><g id="elem_ScreenBuffer"><rect codeLine="50" fill="#F1F1F1" height="48" id="ScreenBuffer" rx="2.5" ry="2.5" style="stroke:#181818;stroke-width:0.5;" width="120" x="1846.5" y="426"/><ellipse cx="1861.5" cy="442" fill="#ADD1B2" rx="11" ry="11" style="stroke:#181818;stroke-width:1.0;"/><path d="M1864.4688,447.6406 Q1863.8906,447.9375 1863.25,448.0781 Q1862.6094,448.2344 1861.9063,448.2344 Q1859.4063,448.2344 1858.0781,446.5938 Q1856.7656,444.9375 1856.7656,441.8125 Q1856.7656,438.6875 1858.0781,437.0313 Q1859.4063,435.375 1861.9063,435.375 Q1862.6094,435.375 1863.25,435.5313 Q1863.9063,435.6875 1864.4688,435.9844 L1864.4688,438.7031 Q1863.8438,438.125 1863.25,437.8594 Q1862.6563,437.5781 1862.0313,437.5781 Q1860.6875,437.5781 1860,438.6563 Q1859.3125,439.7188 1859.3125,441.8125 Q1859.3125,443.9063 1860,444.9844 Q1860.6875,446.0469 1862.0313,446.0469 Q1862.6563,446.0469 1863.25,445.7813 Q1863.8438,445.5 1864.4688,444.9219 L1864.4688,447.6406 Z " fill="#000000"/><text fill="#000000" font-family="sans-serif" font-size="14" lengthAdjust="spacing" textLength="88" x="1875.5" y="447.432">ScreenBuffer</text><line style="stroke:#181818;stroke-width:0.5;" x1="1847.5" x2="1965.5" y1="458" y2="458"/><line style="stroke:#181818;stroke-width:0.5;" x1="1847.5" x2="1965.5" y1="466" y2="466"/></g><!--reverse link Observable to ScreenBuffer--><g id="link_Observable_ScreenBuffer"><path codeLine="52" d="M1906.5,515.98 C1906.5,495.32 1906.5,490.57 1906.5,474.12 " fill="none" id="Observable-backto-ScreenBuffer" style="stroke:#181818;stroke-width:1.0;"/><polygon fill="none" points="1906.5,533.98,1912.5,515.98,1900.5,515.98,1906.5,533.98" style="stroke:#181818;stroke-width:1.0;"/></g><!--reverse link ScreenBuffer to BufferObserver--><g id="link_ScreenBuffer_BufferObserver"><path codeLine="53" d="M1850.5894,479.6286 C1819.4194,495.8086 1787.87,512.74 1751.5,534 C1741.43,539.89 1730.81,546.4 1720.69,552.77 " fill="none" id="ScreenBuffer-backto-BufferObserver" style="stroke:#181818;stroke-width:1.0;"/><polygon fill="#181818" points="1861.24,474.1,1854.0719,473.3141,1850.5894,479.6286,1857.7576,480.4145,1861.24,474.1" style="stroke:#181818;stroke-width:1.0;"/></g><!--reverse link BufferObserver to Screen--><g id="link_BufferObserver_Screen"><path codeLine="54" d="M1737.0867,629.8767 C1746.9167,636.1167 1741.92,632.94 1751.5,639 C1783.65,659.33 1820.27,682.34 1846.77,698.97 " fill="none" id="BufferObserver-backto-Screen" style="stroke:#181818;stroke-width:1.0;"/><polygon fill="none" points="1721.89,620.23,1733.8711,634.9423,1740.3023,624.8112,1721.89,620.23" style="stroke:#181818;stroke-width:1.0;"/></g><!--reverse link Emulator to Screen--><g id="link_Emulator_Screen"><path codeLine="55" d="M1987.7703,120.251 C2040.6603,168.321 2097.5,237.07 2097.5,322 C2097.5,322 2097.5,322 2097.5,451 C2097.5,536.07 2113.78,571.89 2061.5,639 C2027.13,683.11 1963.75,704.77 1922.63,714.64 " fill="none" id="Emulator-backto-Screen" style="stroke:#181818;stroke-width:1.0;"/><polygon fill="#181818" points="1978.89,112.18,1980.6398,119.1756,1987.7703,120.251,1986.0205,113.2554,1978.89,112.18" style="stroke:#181818;stroke-width:1.0;"/></g><!--link BufferObserver to Observable--><g id="link_BufferObserver_Observable"><path codeLine="56" d="M1733.65,586.5 C1745.35,586.5 1757.06,586.5 1768.76,586.5 " fill="none" id="BufferObserver-Observable" style="stroke:#181818;stroke-width:1.0;"/></g><!--reverse link Emulator to FileReader--><g id="link_Emulator_FileReader"><path codeLine="58" d="M1865.0611,116.6634 C1847.3011,137.2534 1831.67,155.38 1817.52,171.79 " fill="none" id="Emulator-backto-FileReader" style="stroke:#181818;stroke-width:1.0;"/><polygon fill="#181818" points="1868.98,112.12,1860.0727,116.3225,1865.7142,115.9061,1866.1306,121.5477,1868.98,112.12" style="stroke:#181818;stroke-width:1.0;"/></g><!--reverse link Emulator to CPU--><g id="link_Emulator_CPU"><path codeLine="59" d="M1913.5,124.12 C1913.5,144.71 1913.5,155.38 1913.5,171.79 " fill="none" id="Emulator-backto-CPU" style="stroke:#181818;stroke-width:1.0;"/><polygon fill="#181818" points="1913.5,112.12,1909.5,118.12,1913.5,124.12,1917.5,118.12,1913.5,112.12" style="stroke:#181818;stroke-width:1.0;"/></g><!--reverse link CPU to Register--><g id="link_CPU_Register"><path codeLine="60" d="M1929.5835,231.0712 C1940.1835,253.5212 1951.02,276.5 1961.6,298.91 " fill="none" id="CPU-backto-Register" style="stroke:#181818;stroke-width:1.0;"/><polygon fill="#181818" points="1924.46,220.22,1923.4047,227.3535,1929.5835,231.0712,1930.6388,223.9378,1924.46,220.22" style="stroke:#181818;stroke-width:1.0;"/></g><!--reverse link CPU to MemoryAdapter--><g id="link_CPU_MemoryAdapter"><path codeLine="61" d="M1879.6145,228.3725 C1861.5445,245.1025 1845.46,260 1823.93,279.94 " fill="none" id="CPU-backto-MemoryAdapter" style="stroke:#181818;stroke-width:1.0;"/><polygon fill="#181818" points="1888.42,220.22,1881.2998,221.3611,1879.6145,228.3725,1886.7348,227.2314,1888.42,220.22" style="stroke:#181818;stroke-width:1.0;"/></g><!--reverse link CPU to InstructionTemplate--><g id="link_CPU_InstructionTemplate"><path codeLine="62" d="M1872.8656,218.4356 C1867.2556,220.9856 1872.26,218.35 1866.5,220 C1697.38,268.51 1167.64,304.87 965.22,317.32 " fill="none" id="CPU-backto-InstructionTemplate" style="stroke:#181818;stroke-width:1.0;"/><polygon fill="#181818" points="1883.79,213.47,1876.6726,212.3114,1872.8656,218.4356,1879.983,219.5943,1883.79,213.47" style="stroke:#181818;stroke-width:1.0;"/></g><!--reverse link InstructionTemplate to StoreInstruction--><g id="link_InstructionTemplate_StoreInstruction"><path codeLine="64" d="M787.8199,337.9475 C672.5899,354.8175 471.09,386.24 286.5,426 C280.94,427.2 275.21,428.51 269.46,429.89 " fill="none" id="InstructionTemplate-backto-StoreInstruction" style="stroke:#181818;stroke-width:1.0;"/><polygon fill="none" points="805.63,335.34,786.9507,332.0107,788.689,343.8842,805.63,335.34" style="stroke:#181818;stroke-width:1.0;"/></g><!--reverse link InstructionTemplate to AddInstruction--><g id="link_InstructionTemplate_AddInstruction"><path codeLine="65" d="M788.3105,345.972 C701.6605,365.732 576.69,394.82 454.5,426 C448.93,427.42 443.17,428.93 437.39,430.46 " fill="none" id="InstructionTemplate-backto-AddInstruction" style="stroke:#181818;stroke-width:1.0;"/><polygon fill="none" points="805.86,341.97,786.9765,340.1222,789.6446,351.8219,805.86,341.97" style="stroke:#181818;stroke-width:1.0;"/></g><!--reverse link InstructionTemplate to SubInstruction--><g id="link_InstructionTemplate_SubInstruction"><path codeLine="66" d="M804.5155,353.171 C742.1455,375.641 664.81,403.5 602.47,425.96 " fill="none" id="InstructionTemplate-backto-SubInstruction" style="stroke:#181818;stroke-width:1.0;"/><polygon fill="none" points="821.45,347.07,802.4818,347.5261,806.5491,358.8158,821.45,347.07" style="stroke:#181818;stroke-width:1.0;"/></g><!--reverse link InstructionTemplate to ReadInstruction--><g id="link_InstructionTemplate_ReadInstruction"><path codeLine="67" d="M838.1346,357.6427 C806.5246,380.0927 773.57,403.5 742.02,425.91 " fill="none" id="InstructionTemplate-backto-ReadInstruction" style="stroke:#181818;stroke-width:1.0;"/><polygon fill="none" points="852.81,347.22,834.6604,352.7509,841.6089,362.5345,852.81,347.22" style="stroke:#181818;stroke-width:1.0;"/></g><!--reverse link InstructionTemplate to WriteInstruction--><g id="link_InstructionTemplate_WriteInstruction"><path codeLine="68" d="M885.5,365.22 C885.5,387.67 885.5,403.5 885.5,425.91 " fill="none" id="InstructionTemplate-backto-WriteInstruction" style="stroke:#181818;stroke-width:1.0;"/><polygon fill="none" points="885.5,347.22,879.5,365.22,891.5,365.22,885.5,347.22" style="stroke:#181818;stroke-width:1.0;"/></g><!--reverse link InstructionTemplate to JumpInstruction--><g id="link_InstructionTemplate_JumpInstruction"><path codeLine="69" d="M933.0832,357.6034 C964.8732,380.0534 998.07,403.5 1029.8,425.91 " fill="none" id="InstructionTemplate-backto-JumpInstruction" style="stroke:#181818;stroke-width:1.0;"/><polygon fill="none" points="918.38,347.22,929.6221,362.5045,936.5444,352.7023,918.38,347.22" style="stroke:#181818;stroke-width:1.0;"/></g><!--reverse link InstructionTemplate to ReadKeyboardInstruction--><g id="link_InstructionTemplate_ReadKeyboardInstruction"><path codeLine="70" d="M973.6801,352.6291 C1042.8801,375.0991 1130.35,403.5 1199.53,425.96 " fill="none" id="InstructionTemplate-backto-ReadKeyboardInstruction" style="stroke:#181818;stroke-width:1.0;"/><polygon fill="none" points="956.56,347.07,971.827,358.3358,975.5331,346.9224,956.56,347.07" style="stroke:#181818;stroke-width:1.0;"/></g><!--reverse link InstructionTemplate to SwitchMemoryInstruction--><g id="link_InstructionTemplate_SwitchMemoryInstruction"><path codeLine="71" d="M982.9405,343.4898 C1095.6505,366.0298 1283.89,403.68 1407.86,428.47 " fill="none" id="InstructionTemplate-backto-SwitchMemoryInstruction" style="stroke:#181818;stroke-width:1.0;"/><polygon fill="none" points="965.29,339.96,981.7639,349.3733,984.1171,337.6063,965.29,339.96" style="stroke:#181818;stroke-width:1.0;"/></g><!--link SkipEqualInstruction to InstructionTemplate--><g id="link_SkipEqualInstruction_InstructionTemplate"><path codeLine="72" d="M1479.29,216.55 C1473.62,217.74 1467.98,218.9 1462.5,220 C1285.44,255.4 1094.281,287.8265 982.801,306.1765 " fill="none" id="SkipEqualInstruction-to-InstructionTemplate" style="stroke:#181818;stroke-width:1.0;"/><polygon fill="none" points="965.04,309.1,983.7755,312.0968,981.8265,300.2561,965.04,309.1" style="stroke:#181818;stroke-width:1.0;"/></g><!--link SkipNotEqualInstruction to InstructionTemplate--><g id="link_SkipNotEqualInstruction_InstructionTemplate"><path codeLine="73" d="M1261.41,220.07 C1176.73,243.03 1065.1629,273.2902 982.4629,295.7102 " fill="none" id="SkipNotEqualInstruction-to-InstructionTemplate" style="stroke:#181818;stroke-width:1.0;"/><polygon fill="none" points="965.09,300.42,984.0328,301.5012,980.893,289.9192,965.09,300.42" style="stroke:#181818;stroke-width:1.0;"/></g><!--link SetAInstruction to InstructionTemplate--><g id="link_SetAInstruction_InstructionTemplate"><path codeLine="74" d="M1097.51,220.07 C1050.85,242.51 996.5928,268.5911 949.8728,291.0511 " fill="none" id="SetAInstruction-to-InstructionTemplate" style="stroke:#181818;stroke-width:1.0;"/><polygon fill="none" points="933.65,298.85,952.4724,296.4587,947.2731,285.6436,933.65,298.85" style="stroke:#181818;stroke-width:1.0;"/></g><!--link SetTInstruction to InstructionTemplate--><g id="link_SetTInstruction_InstructionTemplate"><path codeLine="75" d="M957.97,220.22 C941.98,242.67 928.3419,261.8382 912.3819,284.2482 " fill="none" id="SetTInstruction-to-InstructionTemplate" style="stroke:#181818;stroke-width:1.0;"/><polygon fill="none" points="901.94,298.91,917.2691,287.7288,907.4946,280.7676,901.94,298.91" style="stroke:#181818;stroke-width:1.0;"/></g><!--link ReadTInstruction to InstructionTemplate--><g id="link_ReadTInstruction_InstructionTemplate"><path codeLine="76" d="M813.85,220.22 C829.65,242.67 843.1111,261.7795 858.8811,284.1895 " fill="none" id="ReadTInstruction-to-InstructionTemplate" style="stroke:#181818;stroke-width:1.0;"/><polygon fill="none" points="869.24,298.91,863.788,280.7365,853.9743,287.6424,869.24,298.91" style="stroke:#181818;stroke-width:1.0;"/></g><!--link ConvertToBaseTenInstruction to InstructionTemplate--><g id="link_ConvertToBaseTenInstruction_InstructionTemplate"><path codeLine="77" d="M630.27,220.07 C686.53,242.54 754.8437,269.8242 811.0837,292.2842 " fill="none" id="ConvertToBaseTenInstruction-to-InstructionTemplate" style="stroke:#181818;stroke-width:1.0;"/><polygon fill="none" points="827.8,298.96,813.309,286.7121,808.8585,297.8563,827.8,298.96" style="stroke:#181818;stroke-width:1.0;"/></g><!--link ConvertByteToASCIIInstruction to InstructionTemplate--><g id="link_ConvertByteToASCIIInstruction_InstructionTemplate"><path codeLine="78" d="M410.11,220.07 C524.61,244.62 685.4799,279.1171 788.0599,301.1071 " fill="none" id="ConvertByteToASCIIInstruction-to-InstructionTemplate" style="stroke:#181818;stroke-width:1.0;"/><polygon fill="none" points="805.66,304.88,789.3175,295.2404,786.8022,306.9738,805.66,304.88" style="stroke:#181818;stroke-width:1.0;"/></g><!--link DrawInstruction to InstructionTemplate--><g id="link_DrawInstruction_InstructionTemplate"><path codeLine="79" d="M148.42,216.28 C154.18,217.62 159.93,218.88 165.5,220 C396.19,266.33 654.7054,297.3147 787.9954,311.8047 " fill="none" id="DrawInstruction-to-InstructionTemplate" style="stroke:#181818;stroke-width:1.0;"/><polygon fill="none" points="805.89,313.75,788.6439,305.8398,787.347,317.7695,805.89,313.75" style="stroke:#181818;stroke-width:1.0;"/></g><!--reverse link MemoryAdapter to RAM--><g id="link_MemoryAdapter_RAM"><path codeLine="81" d="M1733.8068,380.4324 C1718.1068,400.2624 1711.16,409.02 1697.98,425.67 " fill="none" id="MemoryAdapter-backto-RAM" style="stroke:#181818;stroke-width:1.0;"/><polygon fill="none" points="1744.98,366.32,1729.1027,376.708,1738.5109,384.1568,1744.98,366.32" style="stroke:#181818;stroke-width:1.0;"/></g><!--reverse link MemoryAdapter to ROM--><g id="link_MemoryAdapter_ROM"><path codeLine="82" d="M1778.5,384.32 C1778.5,404.15 1778.5,409.02 1778.5,425.67 " fill="none" id="MemoryAdapter-backto-ROM" style="stroke:#181818;stroke-width:1.0;"/><polygon fill="none" points="1778.5,366.32,1772.5,384.32,1784.5,384.32,1778.5,366.32" style="stroke:#181818;stroke-width:1.0;"/></g><!--reverse link MemoryAdapter to ScreenBuffer--><g id="link_MemoryAdapter_ScreenBuffer"><path codeLine="83" d="M1834.7092,378.8948 C1855.0192,398.7248 1865.56,409.02 1882.61,425.67 " fill="none" id="MemoryAdapter-backto-ScreenBuffer" style="stroke:#181818;stroke-width:1.0;"/><polygon fill="none" points="1821.83,366.32,1830.5176,383.1879,1838.9008,374.6018,1821.83,366.32" style="stroke:#181818;stroke-width:1.0;"/></g><!--SRC=[ZLN9Rjim4BtpAtYKq_e7Z5naDm6Sm7KGgUYPaiOE4ObKkTWmslnxA56s5f9AJ-QyURE8d3VEIo8bVgXqIHGN-2_2-9jKHAXeOO-yjgUIa-95yACWLLJRtnLEbA3ik40V2ELjeaTQmYkG0amg0v9CAa5oXQrt1nKNbxWWjOAkbZ3aY1I502bNUClKOeNN5mMDxooeWf7pEpwHKeEb3Cg-nhkcNcViMwEpDY-_1YuuKgdypMsPCNMkA6SfLBMv3-W34tCvC61qS5mKBfZep0MRIt7HtyqNkl2Jhcf_YcUuP9m8NzKpLVcRlM6FzvtM3tyqAVskdro5lA1YBvhw6_J06yvE85JArqH22Yp8Q1urvN6osMvTpWz1paCKKMOUya1omFjCWZYHh0GxKsPYB0GYujrXXQ_GmevTnK_m5OjnHG-NAoIZTkBwkcjzE82ukcrjNHTcSAB1R2Qv0623KMfj6zlEuQ3z-t_BvOY0HkmxunqNHPCU1WdGJTHtFJQejIoTP7t8lGdfjJnEPHI56bKrvwkWRi18uZVKeos4V8Ap_K_55cHEz1VEE9Paa3TLQP3e23V8d6fvjhPFtk6F2YW-4A2N_YqmJ_TjXfc8oRQOPQR_ntIsIfWwjsc-Z0fidt2Siv76Vs_sKUET5zvxuP7oFm40]--></g></svg>