<?xml version="1.0" encoding="us-ascii" standalone="no"?><svg xmlns="http://www.w3.org/2000/svg" xmlns:xlink="http://www.w3.org/1999/xlink" contentStyleType="text/css" height="1762px" preserveAspectRatio="none" style="width:3919px;height:1762px;background:#FFFFFF;" version="1.1" viewBox="0 0 3919 1762" width="3919px" zoomAndPan="magnify"><defs/><g><!--cluster memory--><g id="cluster_memory"><path d="M642.5,1046 L702.5,1046 A3.75,3.75 0 0 1 705,1048.5 L712,1071.0679 L1387.5,1071.0679 A2.5,2.5 0 0 1 1390,1073.5679 L1390,1492.5 A2.5,2.5 0 0 1 1387.5,1495 L642.5,1495 A2.5,2.5 0 0 1 640,1492.5 L640,1048.5 A2.5,2.5 0 0 1 642.5,1046 " fill="none" style="stroke:#000000;stroke-width:1.5;"/><line style="stroke:#000000;stroke-width:1.5;" x1="640" x2="712" y1="1071.0679" y2="1071.0679"/><text fill="#000000" font-family="sans-serif" font-size="14" font-weight="bold" lengthAdjust="spacing" textLength="59" x="644" y="1062.9659">memory</text></g><!--cluster instructions--><g id="cluster_instructions"><path d="M266.5,553 L350.5,553 A3.75,3.75 0 0 1 353,555.5 L360,578.0679 L3458.5,578.0679 A2.5,2.5 0 0 1 3461,580.5679 L3461,903 A2.5,2.5 0 0 1 3458.5,905.5 L266.5,905.5 A2.5,2.5 0 0 1 264,903 L264,555.5 A2.5,2.5 0 0 1 266.5,553 " fill="none" style="stroke:#000000;stroke-width:1.5;"/><line style="stroke:#000000;stroke-width:1.5;" x1="264" x2="360" y1="578.0679" y2="578.0679"/><text fill="#000000" font-family="sans-serif" font-size="14" font-weight="bold" lengthAdjust="spacing" textLength="83" x="268" y="569.9659">instructions</text></g><!--class MemoryAdapter--><g id="elem_MemoryAdapter"><rect codeLine="11" fill="#F1F1F1" height="105.2038" id="MemoryAdapter" rx="2.5" ry="2.5" style="stroke:#181818;stroke-width:0.5;" width="267" x="1039.5" y="1084"/><ellipse cx="1117.75" cy="1100" fill="#B4A7E5" rx="11" ry="11" style="stroke:#181818;stroke-width:1.0;"/><path d="M1113.6719,1095.7656 L1113.6719,1093.6094 L1121.0625,1093.6094 L1121.0625,1095.7656 L1118.5938,1095.7656 L1118.5938,1103.8438 L1121.0625,1103.8438 L1121.0625,1106 L1113.6719,1106 L1113.6719,1103.8438 L1116.1406,1103.8438 L1116.1406,1095.7656 L1113.6719,1095.7656 Z " fill="#000000"/><text fill="#000000" font-family="sans-serif" font-size="14" font-style="italic" lengthAdjust="spacing" textLength="102" x="1138.25" y="1105.432">MemoryAdapter</text><line style="stroke:#181818;stroke-width:0.5;" x1="1040.5" x2="1305.5" y1="1116" y2="1116"/><ellipse cx="1050.5" cy="1131.034" fill="none" rx="3" ry="3" style="stroke:#038048;stroke-width:1.0;"/><text fill="#000000" font-family="sans-serif" font-size="14" lengthAdjust="spacing" textLength="53" x="1059.5" y="1134.9659">size: Int</text><line style="stroke:#181818;stroke-width:0.5;" x1="1040.5" x2="1305.5" y1="1143.0679" y2="1143.0679"/><ellipse cx="1050.5" cy="1158.1019" fill="#84BE84" rx="3" ry="3" style="stroke:#038048;stroke-width:1.0;"/><text fill="#000000" font-family="sans-serif" font-size="14" lengthAdjust="spacing" textLength="194" x="1059.5" y="1162.0339">read(address: UShort): UByte</text><ellipse cx="1050.5" cy="1177.1698" fill="#84BE84" rx="3" ry="3" style="stroke:#038048;stroke-width:1.0;"/><text fill="#000000" font-family="sans-serif" font-size="14" lengthAdjust="spacing" textLength="241" x="1059.5" y="1181.1018">write(address: UShort, value: UByte)</text></g><!--class RAM--><g id="elem_RAM"><rect codeLine="17" fill="#F1F1F1" height="67.0679" id="RAM" rx="2.5" ry="2.5" style="stroke:#181818;stroke-width:0.5;" width="164" x="1210" y="1374"/><ellipse cx="1272.25" cy="1390" fill="#ADD1B2" rx="11" ry="11" style="stroke:#181818;stroke-width:1.0;"/><path d="M1275.2188,1395.6406 Q1274.6406,1395.9375 1274,1396.0781 Q1273.3594,1396.2344 1272.6563,1396.2344 Q1270.1563,1396.2344 1268.8281,1394.5938 Q1267.5156,1392.9375 1267.5156,1389.8125 Q1267.5156,1386.6875 1268.8281,1385.0313 Q1270.1563,1383.375 1272.6563,1383.375 Q1273.3594,1383.375 1274,1383.5313 Q1274.6563,1383.6875 1275.2188,1383.9844 L1275.2188,1386.7031 Q1274.5938,1386.125 1274,1385.8594 Q1273.4063,1385.5781 1272.7813,1385.5781 Q1271.4375,1385.5781 1270.75,1386.6563 Q1270.0625,1387.7188 1270.0625,1389.8125 Q1270.0625,1391.9063 1270.75,1392.9844 Q1271.4375,1394.0469 1272.7813,1394.0469 Q1273.4063,1394.0469 1274,1393.7813 Q1274.5938,1393.5 1275.2188,1392.9219 L1275.2188,1395.6406 Z " fill="#000000"/><text fill="#000000" font-family="sans-serif" font-size="14" lengthAdjust="spacing" textLength="31" x="1292.75" y="1395.432">RAM</text><line style="stroke:#181818;stroke-width:0.5;" x1="1211" x2="1373" y1="1406" y2="1406"/><rect fill="none" height="6" style="stroke:#C82930;stroke-width:1.0;" width="6" x="1218" y="1418.034"/><text fill="#000000" font-family="sans-serif" font-size="14" lengthAdjust="spacing" textLength="138" x="1230" y="1424.9659">memory: UByteArray</text><line style="stroke:#181818;stroke-width:0.5;" x1="1211" x2="1373" y1="1433.0679" y2="1433.0679"/></g><!--class ROM--><g id="elem_ROM"><rect codeLine="21" fill="#F1F1F1" height="67.0679" id="ROM" rx="2.5" ry="2.5" style="stroke:#181818;stroke-width:0.5;" width="139" x="1035.5" y="1374"/><ellipse cx="1084.25" cy="1390" fill="#ADD1B2" rx="11" ry="11" style="stroke:#181818;stroke-width:1.0;"/><path d="M1087.2188,1395.6406 Q1086.6406,1395.9375 1086,1396.0781 Q1085.3594,1396.2344 1084.6563,1396.2344 Q1082.1563,1396.2344 1080.8281,1394.5938 Q1079.5156,1392.9375 1079.5156,1389.8125 Q1079.5156,1386.6875 1080.8281,1385.0313 Q1082.1563,1383.375 1084.6563,1383.375 Q1085.3594,1383.375 1086,1383.5313 Q1086.6563,1383.6875 1087.2188,1383.9844 L1087.2188,1386.7031 Q1086.5938,1386.125 1086,1385.8594 Q1085.4063,1385.5781 1084.7813,1385.5781 Q1083.4375,1385.5781 1082.75,1386.6563 Q1082.0625,1387.7188 1082.0625,1389.8125 Q1082.0625,1391.9063 1082.75,1392.9844 Q1083.4375,1394.0469 1084.7813,1394.0469 Q1085.4063,1394.0469 1086,1393.7813 Q1086.5938,1393.5 1087.2188,1392.9219 L1087.2188,1395.6406 Z " fill="#000000"/><text fill="#000000" font-family="sans-serif" font-size="14" lengthAdjust="spacing" textLength="33" x="1104.75" y="1395.432">ROM</text><line style="stroke:#181818;stroke-width:0.5;" x1="1036.5" x2="1173.5" y1="1406" y2="1406"/><rect fill="none" height="6" style="stroke:#C82930;stroke-width:1.0;" width="6" x="1043.5" y="1418.034"/><text fill="#000000" font-family="sans-serif" font-size="14" lengthAdjust="spacing" textLength="113" x="1055.5" y="1424.9659">data: UByteArray</text><line style="stroke:#181818;stroke-width:0.5;" x1="1036.5" x2="1173.5" y1="1433.0679" y2="1433.0679"/></g><!--class ScreenBuffer--><g id="elem_ScreenBuffer"><rect codeLine="25" fill="#F1F1F1" height="143.3396" id="ScreenBuffer" rx="2.5" ry="2.5" style="stroke:#181818;stroke-width:0.5;" width="345" x="655.5" y="1336"/><ellipse cx="779.75" cy="1352" fill="#ADD1B2" rx="11" ry="11" style="stroke:#181818;stroke-width:1.0;"/><path d="M782.7188,1357.6406 Q782.1406,1357.9375 781.5,1358.0781 Q780.8594,1358.2344 780.1563,1358.2344 Q777.6563,1358.2344 776.3281,1356.5938 Q775.0156,1354.9375 775.0156,1351.8125 Q775.0156,1348.6875 776.3281,1347.0313 Q777.6563,1345.375 780.1563,1345.375 Q780.8594,1345.375 781.5,1345.5313 Q782.1563,1345.6875 782.7188,1345.9844 L782.7188,1348.7031 Q782.0938,1348.125 781.5,1347.8594 Q780.9063,1347.5781 780.2813,1347.5781 Q778.9375,1347.5781 778.25,1348.6563 Q777.5625,1349.7188 777.5625,1351.8125 Q777.5625,1353.9063 778.25,1354.9844 Q778.9375,1356.0469 780.2813,1356.0469 Q780.9063,1356.0469 781.5,1355.7813 Q782.0938,1355.5 782.7188,1354.9219 L782.7188,1357.6406 Z " fill="#000000"/><text fill="#000000" font-family="sans-serif" font-size="14" lengthAdjust="spacing" textLength="88" x="800.25" y="1357.432">ScreenBuffer</text><line style="stroke:#181818;stroke-width:0.5;" x1="656.5" x2="999.5" y1="1368" y2="1368"/><rect fill="none" height="6" style="stroke:#C82930;stroke-width:1.0;" width="6" x="663.5" y="1380.034"/><text fill="#000000" font-family="sans-serif" font-size="14" lengthAdjust="spacing" textLength="138" x="675.5" y="1386.9659">memory: UByteArray</text><ellipse cx="666.5" cy="1402.1019" fill="none" rx="3" ry="3" style="stroke:#038048;stroke-width:1.0;"/><text fill="#000000" font-family="sans-serif" font-size="14" lengthAdjust="spacing" textLength="319" x="675.5" y="1406.0339">observers: MutableList&lt;ScreenBufferObserver&gt;</text><line style="stroke:#181818;stroke-width:0.5;" x1="656.5" x2="999.5" y1="1414.1358" y2="1414.1358"/><ellipse cx="666.5" cy="1429.1698" fill="#84BE84" rx="3" ry="3" style="stroke:#038048;stroke-width:1.0;"/><text fill="#000000" font-family="sans-serif" font-size="14" lengthAdjust="spacing" textLength="115" x="675.5" y="1433.1018">notifyObservers()</text><ellipse cx="666.5" cy="1448.2377" fill="#84BE84" rx="3" ry="3" style="stroke:#038048;stroke-width:1.0;"/><text fill="#000000" font-family="sans-serif" font-size="14" lengthAdjust="spacing" textLength="291" x="675.5" y="1452.1697">subscribe(observer: ScreenBufferObserver)</text><ellipse cx="666.5" cy="1467.3056" fill="#84BE84" rx="3" ry="3" style="stroke:#038048;stroke-width:1.0;"/><text fill="#000000" font-family="sans-serif" font-size="14" lengthAdjust="spacing" textLength="309" x="675.5" y="1471.2376">unsubscribe(observer: ScreenBufferObserver)</text></g><!--class InstructionTemplate--><g id="elem_InstructionTemplate"><rect codeLine="77" fill="#F1F1F1" height="124.2717" id="InstructionTemplate" rx="2.5" ry="2.5" style="stroke:#181818;stroke-width:0.5;" width="472" x="1878" y="591"/><ellipse cx="2046.25" cy="607" fill="#B4A7E5" rx="11" ry="11" style="stroke:#181818;stroke-width:1.0;"/><path d="M2042.1719,602.7656 L2042.1719,600.6094 L2049.5625,600.6094 L2049.5625,602.7656 L2047.0938,602.7656 L2047.0938,610.8438 L2049.5625,610.8438 L2049.5625,613 L2042.1719,613 L2042.1719,610.8438 L2044.6406,610.8438 L2044.6406,602.7656 L2042.1719,602.7656 Z " fill="#000000"/><text fill="#000000" font-family="sans-serif" font-size="14" font-style="italic" lengthAdjust="spacing" textLength="127" x="2066.75" y="612.432">InstructionTemplate</text><line style="stroke:#181818;stroke-width:0.5;" x1="1879" x2="2349" y1="623" y2="623"/><line style="stroke:#181818;stroke-width:0.5;" x1="1879" x2="2349" y1="631" y2="631"/><ellipse cx="1889" cy="646.034" fill="#84BE84" rx="3" ry="3" style="stroke:#038048;stroke-width:1.0;"/><text fill="#000000" font-family="sans-serif" font-size="14" lengthAdjust="spacing" textLength="303" x="1898" y="649.9659">execute(instruction: Int, context: CPUContext)</text><ellipse cx="1889" cy="665.1019" fill="#84BE84" rx="3" ry="3" style="stroke:#038048;stroke-width:1.0;"/><text fill="#000000" font-family="sans-serif" font-size="14" lengthAdjust="spacing" textLength="320" x="1898" y="669.0339">parseNibbles(instruction: Int): Map&lt;String, Int&gt;</text><ellipse cx="1889" cy="684.1698" fill="#84BE84" rx="3" ry="3" style="stroke:#038048;stroke-width:1.0;"/><text fill="#000000" font-family="sans-serif" font-size="14" lengthAdjust="spacing" textLength="446" x="1898" y="688.1018">performOperation(nibbles: Map&lt;String, Int&gt;, context: CPUContext)</text><ellipse cx="1889" cy="703.2377" fill="#84BE84" rx="3" ry="3" style="stroke:#038048;stroke-width:1.0;"/><text fill="#000000" font-family="sans-serif" font-size="14" lengthAdjust="spacing" textLength="256" x="1898" y="707.1697">programCounter(context: CPUContext)</text></g><!--class StoreInstruction--><g id="elem_StoreInstruction"><rect codeLine="84" fill="#F1F1F1" height="48" id="StoreInstruction" rx="2.5" ry="2.5" style="stroke:#181818;stroke-width:0.5;" width="141" x="1179.5" y="841.5"/><ellipse cx="1194.5" cy="857.5" fill="#ADD1B2" rx="11" ry="11" style="stroke:#181818;stroke-width:1.0;"/><path d="M1197.4688,863.1406 Q1196.8906,863.4375 1196.25,863.5781 Q1195.6094,863.7344 1194.9063,863.7344 Q1192.4063,863.7344 1191.0781,862.0938 Q1189.7656,860.4375 1189.7656,857.3125 Q1189.7656,854.1875 1191.0781,852.5313 Q1192.4063,850.875 1194.9063,850.875 Q1195.6094,850.875 1196.25,851.0313 Q1196.9063,851.1875 1197.4688,851.4844 L1197.4688,854.2031 Q1196.8438,853.625 1196.25,853.3594 Q1195.6563,853.0781 1195.0313,853.0781 Q1193.6875,853.0781 1193,854.1563 Q1192.3125,855.2188 1192.3125,857.3125 Q1192.3125,859.4063 1193,860.4844 Q1193.6875,861.5469 1195.0313,861.5469 Q1195.6563,861.5469 1196.25,861.2813 Q1196.8438,861 1197.4688,860.4219 L1197.4688,863.1406 Z " fill="#000000"/><text fill="#000000" font-family="sans-serif" font-size="14" lengthAdjust="spacing" textLength="109" x="1208.5" y="862.932">StoreInstruction</text><line style="stroke:#181818;stroke-width:0.5;" x1="1180.5" x2="1319.5" y1="873.5" y2="873.5"/><line style="stroke:#181818;stroke-width:0.5;" x1="1180.5" x2="1319.5" y1="881.5" y2="881.5"/></g><!--class AddInstruction--><g id="elem_AddInstruction"><rect codeLine="85" fill="#F1F1F1" height="48" id="AddInstruction" rx="2.5" ry="2.5" style="stroke:#181818;stroke-width:0.5;" width="133" x="1355.5" y="841.5"/><ellipse cx="1370.5" cy="857.5" fill="#ADD1B2" rx="11" ry="11" style="stroke:#181818;stroke-width:1.0;"/><path d="M1373.4688,863.1406 Q1372.8906,863.4375 1372.25,863.5781 Q1371.6094,863.7344 1370.9063,863.7344 Q1368.4063,863.7344 1367.0781,862.0938 Q1365.7656,860.4375 1365.7656,857.3125 Q1365.7656,854.1875 1367.0781,852.5313 Q1368.4063,850.875 1370.9063,850.875 Q1371.6094,850.875 1372.25,851.0313 Q1372.9063,851.1875 1373.4688,851.4844 L1373.4688,854.2031 Q1372.8438,853.625 1372.25,853.3594 Q1371.6563,853.0781 1371.0313,853.0781 Q1369.6875,853.0781 1369,854.1563 Q1368.3125,855.2188 1368.3125,857.3125 Q1368.3125,859.4063 1369,860.4844 Q1369.6875,861.5469 1371.0313,861.5469 Q1371.6563,861.5469 1372.25,861.2813 Q1372.8438,861 1373.4688,860.4219 L1373.4688,863.1406 Z " fill="#000000"/><text fill="#000000" font-family="sans-serif" font-size="14" lengthAdjust="spacing" textLength="101" x="1384.5" y="862.932">AddInstruction</text><line style="stroke:#181818;stroke-width:0.5;" x1="1356.5" x2="1487.5" y1="873.5" y2="873.5"/><line style="stroke:#181818;stroke-width:0.5;" x1="1356.5" x2="1487.5" y1="881.5" y2="881.5"/></g><!--class SubInstruction--><g id="elem_SubInstruction"><rect codeLine="86" fill="#F1F1F1" height="48" id="SubInstruction" rx="2.5" ry="2.5" style="stroke:#181818;stroke-width:0.5;" width="132" x="1524" y="841.5"/><ellipse cx="1539" cy="857.5" fill="#ADD1B2" rx="11" ry="11" style="stroke:#181818;stroke-width:1.0;"/><path d="M1541.9688,863.1406 Q1541.3906,863.4375 1540.75,863.5781 Q1540.1094,863.7344 1539.4063,863.7344 Q1536.9063,863.7344 1535.5781,862.0938 Q1534.2656,860.4375 1534.2656,857.3125 Q1534.2656,854.1875 1535.5781,852.5313 Q1536.9063,850.875 1539.4063,850.875 Q1540.1094,850.875 1540.75,851.0313 Q1541.4063,851.1875 1541.9688,851.4844 L1541.9688,854.2031 Q1541.3438,853.625 1540.75,853.3594 Q1540.1563,853.0781 1539.5313,853.0781 Q1538.1875,853.0781 1537.5,854.1563 Q1536.8125,855.2188 1536.8125,857.3125 Q1536.8125,859.4063 1537.5,860.4844 Q1538.1875,861.5469 1539.5313,861.5469 Q1540.1563,861.5469 1540.75,861.2813 Q1541.3438,861 1541.9688,860.4219 L1541.9688,863.1406 Z " fill="#000000"/><text fill="#000000" font-family="sans-serif" font-size="14" lengthAdjust="spacing" textLength="100" x="1553" y="862.932">SubInstruction</text><line style="stroke:#181818;stroke-width:0.5;" x1="1525" x2="1655" y1="873.5" y2="873.5"/><line style="stroke:#181818;stroke-width:0.5;" x1="1525" x2="1655" y1="881.5" y2="881.5"/></g><!--class ReadInstruction--><g id="elem_ReadInstruction"><rect codeLine="87" fill="#F1F1F1" height="48" id="ReadInstruction" rx="2.5" ry="2.5" style="stroke:#181818;stroke-width:0.5;" width="140" x="1691" y="841.5"/><ellipse cx="1706" cy="857.5" fill="#ADD1B2" rx="11" ry="11" style="stroke:#181818;stroke-width:1.0;"/><path d="M1708.9688,863.1406 Q1708.3906,863.4375 1707.75,863.5781 Q1707.1094,863.7344 1706.4063,863.7344 Q1703.9063,863.7344 1702.5781,862.0938 Q1701.2656,860.4375 1701.2656,857.3125 Q1701.2656,854.1875 1702.5781,852.5313 Q1703.9063,850.875 1706.4063,850.875 Q1707.1094,850.875 1707.75,851.0313 Q1708.4063,851.1875 1708.9688,851.4844 L1708.9688,854.2031 Q1708.3438,853.625 1707.75,853.3594 Q1707.1563,853.0781 1706.5313,853.0781 Q1705.1875,853.0781 1704.5,854.1563 Q1703.8125,855.2188 1703.8125,857.3125 Q1703.8125,859.4063 1704.5,860.4844 Q1705.1875,861.5469 1706.5313,861.5469 Q1707.1563,861.5469 1707.75,861.2813 Q1708.3438,861 1708.9688,860.4219 L1708.9688,863.1406 Z " fill="#000000"/><text fill="#000000" font-family="sans-serif" font-size="14" lengthAdjust="spacing" textLength="108" x="1720" y="862.932">ReadInstruction</text><line style="stroke:#181818;stroke-width:0.5;" x1="1692" x2="1830" y1="873.5" y2="873.5"/><line style="stroke:#181818;stroke-width:0.5;" x1="1692" x2="1830" y1="881.5" y2="881.5"/></g><!--class WriteInstruction--><g id="elem_WriteInstruction"><rect codeLine="88" fill="#F1F1F1" height="48" id="WriteInstruction" rx="2.5" ry="2.5" style="stroke:#181818;stroke-width:0.5;" width="142" x="1866" y="841.5"/><ellipse cx="1881" cy="857.5" fill="#ADD1B2" rx="11" ry="11" style="stroke:#181818;stroke-width:1.0;"/><path d="M1883.9688,863.1406 Q1883.3906,863.4375 1882.75,863.5781 Q1882.1094,863.7344 1881.4063,863.7344 Q1878.9063,863.7344 1877.5781,862.0938 Q1876.2656,860.4375 1876.2656,857.3125 Q1876.2656,854.1875 1877.5781,852.5313 Q1878.9063,850.875 1881.4063,850.875 Q1882.1094,850.875 1882.75,851.0313 Q1883.4063,851.1875 1883.9688,851.4844 L1883.9688,854.2031 Q1883.3438,853.625 1882.75,853.3594 Q1882.1563,853.0781 1881.5313,853.0781 Q1880.1875,853.0781 1879.5,854.1563 Q1878.8125,855.2188 1878.8125,857.3125 Q1878.8125,859.4063 1879.5,860.4844 Q1880.1875,861.5469 1881.5313,861.5469 Q1882.1563,861.5469 1882.75,861.2813 Q1883.3438,861 1883.9688,860.4219 L1883.9688,863.1406 Z " fill="#000000"/><text fill="#000000" font-family="sans-serif" font-size="14" lengthAdjust="spacing" textLength="110" x="1895" y="862.932">WriteInstruction</text><line style="stroke:#181818;stroke-width:0.5;" x1="1867" x2="2007" y1="873.5" y2="873.5"/><line style="stroke:#181818;stroke-width:0.5;" x1="1867" x2="2007" y1="881.5" y2="881.5"/></g><!--class JumpInstruction--><g id="elem_JumpInstruction"><rect codeLine="89" fill="#F1F1F1" height="48" id="JumpInstruction" rx="2.5" ry="2.5" style="stroke:#181818;stroke-width:0.5;" width="141" x="2043.5" y="841.5"/><ellipse cx="2058.5" cy="857.5" fill="#ADD1B2" rx="11" ry="11" style="stroke:#181818;stroke-width:1.0;"/><path d="M2061.4688,863.1406 Q2060.8906,863.4375 2060.25,863.5781 Q2059.6094,863.7344 2058.9063,863.7344 Q2056.4063,863.7344 2055.0781,862.0938 Q2053.7656,860.4375 2053.7656,857.3125 Q2053.7656,854.1875 2055.0781,852.5313 Q2056.4063,850.875 2058.9063,850.875 Q2059.6094,850.875 2060.25,851.0313 Q2060.9063,851.1875 2061.4688,851.4844 L2061.4688,854.2031 Q2060.8438,853.625 2060.25,853.3594 Q2059.6563,853.0781 2059.0313,853.0781 Q2057.6875,853.0781 2057,854.1563 Q2056.3125,855.2188 2056.3125,857.3125 Q2056.3125,859.4063 2057,860.4844 Q2057.6875,861.5469 2059.0313,861.5469 Q2059.6563,861.5469 2060.25,861.2813 Q2060.8438,861 2061.4688,860.4219 L2061.4688,863.1406 Z " fill="#000000"/><text fill="#000000" font-family="sans-serif" font-size="14" lengthAdjust="spacing" textLength="109" x="2072.5" y="862.932">JumpInstruction</text><line style="stroke:#181818;stroke-width:0.5;" x1="2044.5" x2="2183.5" y1="873.5" y2="873.5"/><line style="stroke:#181818;stroke-width:0.5;" x1="2044.5" x2="2183.5" y1="881.5" y2="881.5"/></g><!--class ReadKeyboardInstruction--><g id="elem_ReadKeyboardInstruction"><rect codeLine="90" fill="#F1F1F1" height="48" id="ReadKeyboardInstruction" rx="2.5" ry="2.5" style="stroke:#181818;stroke-width:0.5;" width="204" x="2220" y="841.5"/><ellipse cx="2235" cy="857.5" fill="#ADD1B2" rx="11" ry="11" style="stroke:#181818;stroke-width:1.0;"/><path d="M2237.9688,863.1406 Q2237.3906,863.4375 2236.75,863.5781 Q2236.1094,863.7344 2235.4063,863.7344 Q2232.9063,863.7344 2231.5781,862.0938 Q2230.2656,860.4375 2230.2656,857.3125 Q2230.2656,854.1875 2231.5781,852.5313 Q2232.9063,850.875 2235.4063,850.875 Q2236.1094,850.875 2236.75,851.0313 Q2237.4063,851.1875 2237.9688,851.4844 L2237.9688,854.2031 Q2237.3438,853.625 2236.75,853.3594 Q2236.1563,853.0781 2235.5313,853.0781 Q2234.1875,853.0781 2233.5,854.1563 Q2232.8125,855.2188 2232.8125,857.3125 Q2232.8125,859.4063 2233.5,860.4844 Q2234.1875,861.5469 2235.5313,861.5469 Q2236.1563,861.5469 2236.75,861.2813 Q2237.3438,861 2237.9688,860.4219 L2237.9688,863.1406 Z " fill="#000000"/><text fill="#000000" font-family="sans-serif" font-size="14" lengthAdjust="spacing" textLength="172" x="2249" y="862.932">ReadKeyboardInstruction</text><line style="stroke:#181818;stroke-width:0.5;" x1="2221" x2="2423" y1="873.5" y2="873.5"/><line style="stroke:#181818;stroke-width:0.5;" x1="2221" x2="2423" y1="881.5" y2="881.5"/></g><!--class SwitchMemoryInstruction--><g id="elem_SwitchMemoryInstruction"><rect codeLine="91" fill="#F1F1F1" height="48" id="SwitchMemoryInstruction" rx="2.5" ry="2.5" style="stroke:#181818;stroke-width:0.5;" width="205" x="2459.5" y="841.5"/><ellipse cx="2474.5" cy="857.5" fill="#ADD1B2" rx="11" ry="11" style="stroke:#181818;stroke-width:1.0;"/><path d="M2477.4688,863.1406 Q2476.8906,863.4375 2476.25,863.5781 Q2475.6094,863.7344 2474.9063,863.7344 Q2472.4063,863.7344 2471.0781,862.0938 Q2469.7656,860.4375 2469.7656,857.3125 Q2469.7656,854.1875 2471.0781,852.5313 Q2472.4063,850.875 2474.9063,850.875 Q2475.6094,850.875 2476.25,851.0313 Q2476.9063,851.1875 2477.4688,851.4844 L2477.4688,854.2031 Q2476.8438,853.625 2476.25,853.3594 Q2475.6563,853.0781 2475.0313,853.0781 Q2473.6875,853.0781 2473,854.1563 Q2472.3125,855.2188 2472.3125,857.3125 Q2472.3125,859.4063 2473,860.4844 Q2473.6875,861.5469 2475.0313,861.5469 Q2475.6563,861.5469 2476.25,861.2813 Q2476.8438,861 2477.4688,860.4219 L2477.4688,863.1406 Z " fill="#000000"/><text fill="#000000" font-family="sans-serif" font-size="14" lengthAdjust="spacing" textLength="173" x="2488.5" y="862.932">SwitchMemoryInstruction</text><line style="stroke:#181818;stroke-width:0.5;" x1="2460.5" x2="2663.5" y1="873.5" y2="873.5"/><line style="stroke:#181818;stroke-width:0.5;" x1="2460.5" x2="2663.5" y1="881.5" y2="881.5"/></g><!--class SkipEqualInstruction--><g id="elem_SkipEqualInstruction"><rect codeLine="92" fill="#F1F1F1" height="48" id="SkipEqualInstruction" rx="2.5" ry="2.5" style="stroke:#181818;stroke-width:0.5;" width="172" x="2700" y="841.5"/><ellipse cx="2715" cy="857.5" fill="#ADD1B2" rx="11" ry="11" style="stroke:#181818;stroke-width:1.0;"/><path d="M2717.9688,863.1406 Q2717.3906,863.4375 2716.75,863.5781 Q2716.1094,863.7344 2715.4063,863.7344 Q2712.9063,863.7344 2711.5781,862.0938 Q2710.2656,860.4375 2710.2656,857.3125 Q2710.2656,854.1875 2711.5781,852.5313 Q2712.9063,850.875 2715.4063,850.875 Q2716.1094,850.875 2716.75,851.0313 Q2717.4063,851.1875 2717.9688,851.4844 L2717.9688,854.2031 Q2717.3438,853.625 2716.75,853.3594 Q2716.1563,853.0781 2715.5313,853.0781 Q2714.1875,853.0781 2713.5,854.1563 Q2712.8125,855.2188 2712.8125,857.3125 Q2712.8125,859.4063 2713.5,860.4844 Q2714.1875,861.5469 2715.5313,861.5469 Q2716.1563,861.5469 2716.75,861.2813 Q2717.3438,861 2717.9688,860.4219 L2717.9688,863.1406 Z " fill="#000000"/><text fill="#000000" font-family="sans-serif" font-size="14" lengthAdjust="spacing" textLength="140" x="2729" y="862.932">SkipEqualInstruction</text><line style="stroke:#181818;stroke-width:0.5;" x1="2701" x2="2871" y1="873.5" y2="873.5"/><line style="stroke:#181818;stroke-width:0.5;" x1="2701" x2="2871" y1="881.5" y2="881.5"/></g><!--class SkipNotEqualInstruction--><g id="elem_SkipNotEqualInstruction"><rect codeLine="93" fill="#F1F1F1" height="48" id="SkipNotEqualInstruction" rx="2.5" ry="2.5" style="stroke:#181818;stroke-width:0.5;" width="196" x="2907" y="841.5"/><ellipse cx="2922" cy="857.5" fill="#ADD1B2" rx="11" ry="11" style="stroke:#181818;stroke-width:1.0;"/><path d="M2924.9688,863.1406 Q2924.3906,863.4375 2923.75,863.5781 Q2923.1094,863.7344 2922.4063,863.7344 Q2919.9063,863.7344 2918.5781,862.0938 Q2917.2656,860.4375 2917.2656,857.3125 Q2917.2656,854.1875 2918.5781,852.5313 Q2919.9063,850.875 2922.4063,850.875 Q2923.1094,850.875 2923.75,851.0313 Q2924.4063,851.1875 2924.9688,851.4844 L2924.9688,854.2031 Q2924.3438,853.625 2923.75,853.3594 Q2923.1563,853.0781 2922.5313,853.0781 Q2921.1875,853.0781 2920.5,854.1563 Q2919.8125,855.2188 2919.8125,857.3125 Q2919.8125,859.4063 2920.5,860.4844 Q2921.1875,861.5469 2922.5313,861.5469 Q2923.1563,861.5469 2923.75,861.2813 Q2924.3438,861 2924.9688,860.4219 L2924.9688,863.1406 Z " fill="#000000"/><text fill="#000000" font-family="sans-serif" font-size="14" lengthAdjust="spacing" textLength="164" x="2936" y="862.932">SkipNotEqualInstruction</text><line style="stroke:#181818;stroke-width:0.5;" x1="2908" x2="3102" y1="873.5" y2="873.5"/><line style="stroke:#181818;stroke-width:0.5;" x1="2908" x2="3102" y1="881.5" y2="881.5"/></g><!--class SetAInstruction--><g id="elem_SetAInstruction"><rect codeLine="94" fill="#F1F1F1" height="48" id="SetAInstruction" rx="2.5" ry="2.5" style="stroke:#181818;stroke-width:0.5;" width="136" x="3138" y="841.5"/><ellipse cx="3153" cy="857.5" fill="#ADD1B2" rx="11" ry="11" style="stroke:#181818;stroke-width:1.0;"/><path d="M3155.9688,863.1406 Q3155.3906,863.4375 3154.75,863.5781 Q3154.1094,863.7344 3153.4063,863.7344 Q3150.9063,863.7344 3149.5781,862.0938 Q3148.2656,860.4375 3148.2656,857.3125 Q3148.2656,854.1875 3149.5781,852.5313 Q3150.9063,850.875 3153.4063,850.875 Q3154.1094,850.875 3154.75,851.0313 Q3155.4063,851.1875 3155.9688,851.4844 L3155.9688,854.2031 Q3155.3438,853.625 3154.75,853.3594 Q3154.1563,853.0781 3153.5313,853.0781 Q3152.1875,853.0781 3151.5,854.1563 Q3150.8125,855.2188 3150.8125,857.3125 Q3150.8125,859.4063 3151.5,860.4844 Q3152.1875,861.5469 3153.5313,861.5469 Q3154.1563,861.5469 3154.75,861.2813 Q3155.3438,861 3155.9688,860.4219 L3155.9688,863.1406 Z " fill="#000000"/><text fill="#000000" font-family="sans-serif" font-size="14" lengthAdjust="spacing" textLength="104" x="3167" y="862.932">SetAInstruction</text><line style="stroke:#181818;stroke-width:0.5;" x1="3139" x2="3273" y1="873.5" y2="873.5"/><line style="stroke:#181818;stroke-width:0.5;" x1="3139" x2="3273" y1="881.5" y2="881.5"/></g><!--class SetTInstruction--><g id="elem_SetTInstruction"><rect codeLine="95" fill="#F1F1F1" height="48" id="SetTInstruction" rx="2.5" ry="2.5" style="stroke:#181818;stroke-width:0.5;" width="135" x="3309.5" y="841.5"/><ellipse cx="3324.5" cy="857.5" fill="#ADD1B2" rx="11" ry="11" style="stroke:#181818;stroke-width:1.0;"/><path d="M3327.4688,863.1406 Q3326.8906,863.4375 3326.25,863.5781 Q3325.6094,863.7344 3324.9063,863.7344 Q3322.4063,863.7344 3321.0781,862.0938 Q3319.7656,860.4375 3319.7656,857.3125 Q3319.7656,854.1875 3321.0781,852.5313 Q3322.4063,850.875 3324.9063,850.875 Q3325.6094,850.875 3326.25,851.0313 Q3326.9063,851.1875 3327.4688,851.4844 L3327.4688,854.2031 Q3326.8438,853.625 3326.25,853.3594 Q3325.6563,853.0781 3325.0313,853.0781 Q3323.6875,853.0781 3323,854.1563 Q3322.3125,855.2188 3322.3125,857.3125 Q3322.3125,859.4063 3323,860.4844 Q3323.6875,861.5469 3325.0313,861.5469 Q3325.6563,861.5469 3326.25,861.2813 Q3326.8438,861 3327.4688,860.4219 L3327.4688,863.1406 Z " fill="#000000"/><text fill="#000000" font-family="sans-serif" font-size="14" lengthAdjust="spacing" textLength="103" x="3338.5" y="862.932">SetTInstruction</text><line style="stroke:#181818;stroke-width:0.5;" x1="3310.5" x2="3443.5" y1="873.5" y2="873.5"/><line style="stroke:#181818;stroke-width:0.5;" x1="3310.5" x2="3443.5" y1="881.5" y2="881.5"/></g><!--class ReadTInstruction--><g id="elem_ReadTInstruction"><rect codeLine="96" fill="#F1F1F1" height="48" id="ReadTInstruction" rx="2.5" ry="2.5" style="stroke:#181818;stroke-width:0.5;" width="148" x="280" y="841.5"/><ellipse cx="295" cy="857.5" fill="#ADD1B2" rx="11" ry="11" style="stroke:#181818;stroke-width:1.0;"/><path d="M297.9688,863.1406 Q297.3906,863.4375 296.75,863.5781 Q296.1094,863.7344 295.4063,863.7344 Q292.9063,863.7344 291.5781,862.0938 Q290.2656,860.4375 290.2656,857.3125 Q290.2656,854.1875 291.5781,852.5313 Q292.9063,850.875 295.4063,850.875 Q296.1094,850.875 296.75,851.0313 Q297.4063,851.1875 297.9688,851.4844 L297.9688,854.2031 Q297.3438,853.625 296.75,853.3594 Q296.1563,853.0781 295.5313,853.0781 Q294.1875,853.0781 293.5,854.1563 Q292.8125,855.2188 292.8125,857.3125 Q292.8125,859.4063 293.5,860.4844 Q294.1875,861.5469 295.5313,861.5469 Q296.1563,861.5469 296.75,861.2813 Q297.3438,861 297.9688,860.4219 L297.9688,863.1406 Z " fill="#000000"/><text fill="#000000" font-family="sans-serif" font-size="14" lengthAdjust="spacing" textLength="116" x="309" y="862.932">ReadTInstruction</text><line style="stroke:#181818;stroke-width:0.5;" x1="281" x2="427" y1="873.5" y2="873.5"/><line style="stroke:#181818;stroke-width:0.5;" x1="281" x2="427" y1="881.5" y2="881.5"/></g><!--class ConvertToBaseTenInstruction--><g id="elem_ConvertToBaseTenInstruction"><rect codeLine="97" fill="#F1F1F1" height="48" id="ConvertToBaseTenInstruction" rx="2.5" ry="2.5" style="stroke:#181818;stroke-width:0.5;" width="231" x="463.5" y="841.5"/><ellipse cx="478.5" cy="857.5" fill="#ADD1B2" rx="11" ry="11" style="stroke:#181818;stroke-width:1.0;"/><path d="M481.4688,863.1406 Q480.8906,863.4375 480.25,863.5781 Q479.6094,863.7344 478.9063,863.7344 Q476.4063,863.7344 475.0781,862.0938 Q473.7656,860.4375 473.7656,857.3125 Q473.7656,854.1875 475.0781,852.5313 Q476.4063,850.875 478.9063,850.875 Q479.6094,850.875 480.25,851.0313 Q480.9063,851.1875 481.4688,851.4844 L481.4688,854.2031 Q480.8438,853.625 480.25,853.3594 Q479.6563,853.0781 479.0313,853.0781 Q477.6875,853.0781 477,854.1563 Q476.3125,855.2188 476.3125,857.3125 Q476.3125,859.4063 477,860.4844 Q477.6875,861.5469 479.0313,861.5469 Q479.6563,861.5469 480.25,861.2813 Q480.8438,861 481.4688,860.4219 L481.4688,863.1406 Z " fill="#000000"/><text fill="#000000" font-family="sans-serif" font-size="14" lengthAdjust="spacing" textLength="199" x="492.5" y="862.932">ConvertToBaseTenInstruction</text><line style="stroke:#181818;stroke-width:0.5;" x1="464.5" x2="693.5" y1="873.5" y2="873.5"/><line style="stroke:#181818;stroke-width:0.5;" x1="464.5" x2="693.5" y1="881.5" y2="881.5"/></g><!--class ConvertByteToASCIIInstruction--><g id="elem_ConvertByteToASCIIInstruction"><rect codeLine="98" fill="#F1F1F1" height="48" id="ConvertByteToASCIIInstruction" rx="2.5" ry="2.5" style="stroke:#181818;stroke-width:0.5;" width="239" x="729.5" y="841.5"/><ellipse cx="744.5" cy="857.5" fill="#ADD1B2" rx="11" ry="11" style="stroke:#181818;stroke-width:1.0;"/><path d="M747.4688,863.1406 Q746.8906,863.4375 746.25,863.5781 Q745.6094,863.7344 744.9063,863.7344 Q742.4063,863.7344 741.0781,862.0938 Q739.7656,860.4375 739.7656,857.3125 Q739.7656,854.1875 741.0781,852.5313 Q742.4063,850.875 744.9063,850.875 Q745.6094,850.875 746.25,851.0313 Q746.9063,851.1875 747.4688,851.4844 L747.4688,854.2031 Q746.8438,853.625 746.25,853.3594 Q745.6563,853.0781 745.0313,853.0781 Q743.6875,853.0781 743,854.1563 Q742.3125,855.2188 742.3125,857.3125 Q742.3125,859.4063 743,860.4844 Q743.6875,861.5469 745.0313,861.5469 Q745.6563,861.5469 746.25,861.2813 Q746.8438,861 747.4688,860.4219 L747.4688,863.1406 Z " fill="#000000"/><text fill="#000000" font-family="sans-serif" font-size="14" lengthAdjust="spacing" textLength="207" x="758.5" y="862.932">ConvertByteToASCIIInstruction</text><line style="stroke:#181818;stroke-width:0.5;" x1="730.5" x2="967.5" y1="873.5" y2="873.5"/><line style="stroke:#181818;stroke-width:0.5;" x1="730.5" x2="967.5" y1="881.5" y2="881.5"/></g><!--class DrawInstruction--><g id="elem_DrawInstruction"><rect codeLine="99" fill="#F1F1F1" height="48" id="DrawInstruction" rx="2.5" ry="2.5" style="stroke:#181818;stroke-width:0.5;" width="141" x="1003.5" y="841.5"/><ellipse cx="1018.5" cy="857.5" fill="#ADD1B2" rx="11" ry="11" style="stroke:#181818;stroke-width:1.0;"/><path d="M1021.4688,863.1406 Q1020.8906,863.4375 1020.25,863.5781 Q1019.6094,863.7344 1018.9063,863.7344 Q1016.4063,863.7344 1015.0781,862.0938 Q1013.7656,860.4375 1013.7656,857.3125 Q1013.7656,854.1875 1015.0781,852.5313 Q1016.4063,850.875 1018.9063,850.875 Q1019.6094,850.875 1020.25,851.0313 Q1020.9063,851.1875 1021.4688,851.4844 L1021.4688,854.2031 Q1020.8438,853.625 1020.25,853.3594 Q1019.6563,853.0781 1019.0313,853.0781 Q1017.6875,853.0781 1017,854.1563 Q1016.3125,855.2188 1016.3125,857.3125 Q1016.3125,859.4063 1017,860.4844 Q1017.6875,861.5469 1019.0313,861.5469 Q1019.6563,861.5469 1020.25,861.2813 Q1020.8438,861 1021.4688,860.4219 L1021.4688,863.1406 Z " fill="#000000"/><text fill="#000000" font-family="sans-serif" font-size="14" lengthAdjust="spacing" textLength="109" x="1032.5" y="862.932">DrawInstruction</text><line style="stroke:#181818;stroke-width:0.5;" x1="1004.5" x2="1143.5" y1="873.5" y2="873.5"/><line style="stroke:#181818;stroke-width:0.5;" x1="1004.5" x2="1143.5" y1="881.5" y2="881.5"/></g><!--class Emulator--><g id="elem_Emulator"><rect codeLine="2" fill="#F1F1F1" height="143.3396" id="Emulator" rx="2.5" ry="2.5" style="stroke:#181818;stroke-width:0.5;" width="338" x="7" y="7"/><ellipse cx="141.25" cy="23" fill="#ADD1B2" rx="11" ry="11" style="stroke:#181818;stroke-width:1.0;"/><path d="M144.2188,28.6406 Q143.6406,28.9375 143,29.0781 Q142.3594,29.2344 141.6563,29.2344 Q139.1563,29.2344 137.8281,27.5938 Q136.5156,25.9375 136.5156,22.8125 Q136.5156,19.6875 137.8281,18.0313 Q139.1563,16.375 141.6563,16.375 Q142.3594,16.375 143,16.5313 Q143.6563,16.6875 144.2188,16.9844 L144.2188,19.7031 Q143.5938,19.125 143,18.8594 Q142.4063,18.5781 141.7813,18.5781 Q140.4375,18.5781 139.75,19.6563 Q139.0625,20.7188 139.0625,22.8125 Q139.0625,24.9063 139.75,25.9844 Q140.4375,27.0469 141.7813,27.0469 Q142.4063,27.0469 143,26.7813 Q143.5938,26.5 144.2188,25.9219 L144.2188,28.6406 Z " fill="#000000"/><text fill="#000000" font-family="sans-serif" font-size="14" lengthAdjust="spacing" textLength="61" x="161.75" y="28.432">Emulator</text><line style="stroke:#181818;stroke-width:0.5;" x1="8" x2="344" y1="39" y2="39"/><ellipse cx="18" cy="54.034" fill="none" rx="3" ry="3" style="stroke:#038048;stroke-width:1.0;"/><text fill="#000000" font-family="sans-serif" font-size="14" lengthAdjust="spacing" textLength="74" x="27" y="57.9659">ROM: ROM</text><ellipse cx="18" cy="73.1019" fill="none" rx="3" ry="3" style="stroke:#038048;stroke-width:1.0;"/><text fill="#000000" font-family="sans-serif" font-size="14" lengthAdjust="spacing" textLength="62" x="27" y="77.0339">CPU: CPU</text><line style="stroke:#181818;stroke-width:0.5;" x1="8" x2="344" y1="85.1358" y2="85.1358"/><ellipse cx="18" cy="100.1698" fill="#84BE84" rx="3" ry="3" style="stroke:#038048;stroke-width:1.0;"/><text fill="#000000" font-family="sans-serif" font-size="14" lengthAdjust="spacing" textLength="39" x="27" y="104.1018">start()</text><ellipse cx="18" cy="119.2377" fill="#84BE84" rx="3" ry="3" style="stroke:#038048;stroke-width:1.0;"/><text fill="#000000" font-family="sans-serif" font-size="14" lengthAdjust="spacing" textLength="37" x="27" y="123.1697">stop()</text><ellipse cx="18" cy="138.3056" fill="#84BE84" rx="3" ry="3" style="stroke:#038048;stroke-width:1.0;"/><text fill="#000000" font-family="sans-serif" font-size="14" lengthAdjust="spacing" textLength="312" x="27" y="142.2376">loadProgram(inputProvider: () -&gt; String?): ROM</text></g><!--class CPU--><g id="elem_CPU"><rect codeLine="34" fill="#F1F1F1" height="276.815" id="CPU" rx="2.5" ry="2.5" style="stroke:#181818;stroke-width:0.5;" width="376" x="2741" y="211"/><ellipse cx="2911.25" cy="227" fill="#ADD1B2" rx="11" ry="11" style="stroke:#181818;stroke-width:1.0;"/><path d="M2914.2188,232.6406 Q2913.6406,232.9375 2913,233.0781 Q2912.3594,233.2344 2911.6563,233.2344 Q2909.1563,233.2344 2907.8281,231.5938 Q2906.5156,229.9375 2906.5156,226.8125 Q2906.5156,223.6875 2907.8281,222.0313 Q2909.1563,220.375 2911.6563,220.375 Q2912.3594,220.375 2913,220.5313 Q2913.6563,220.6875 2914.2188,220.9844 L2914.2188,223.7031 Q2913.5938,223.125 2913,222.8594 Q2912.4063,222.5781 2911.7813,222.5781 Q2910.4375,222.5781 2909.75,223.6563 Q2909.0625,224.7188 2909.0625,226.8125 Q2909.0625,228.9063 2909.75,229.9844 Q2910.4375,231.0469 2911.7813,231.0469 Q2912.4063,231.0469 2913,230.7813 Q2913.5938,230.5 2914.2188,229.9219 L2914.2188,232.6406 Z " fill="#000000"/><text fill="#000000" font-family="sans-serif" font-size="14" lengthAdjust="spacing" textLength="27" x="2931.75" y="232.432">CPU</text><line style="stroke:#181818;stroke-width:0.5;" x1="2742" x2="3116" y1="243" y2="243"/><ellipse cx="2752" cy="258.034" fill="none" rx="3" ry="3" style="stroke:#038048;stroke-width:1.0;"/><text fill="#000000" font-family="sans-serif" font-size="14" lengthAdjust="spacing" textLength="158" x="2761" y="261.9659">registers: CPURegisters</text><ellipse cx="2752" cy="277.1019" fill="none" rx="3" ry="3" style="stroke:#038048;stroke-width:1.0;"/><text fill="#000000" font-family="sans-serif" font-size="14" lengthAdjust="spacing" textLength="148" x="2761" y="281.0339">RAM: MemoryAdapter</text><ellipse cx="2752" cy="296.1698" fill="none" rx="3" ry="3" style="stroke:#038048;stroke-width:1.0;"/><text fill="#000000" font-family="sans-serif" font-size="14" lengthAdjust="spacing" textLength="205" x="2761" y="300.1018">SCREEN_BUFFER: ScreenBuffer</text><ellipse cx="2752" cy="315.2377" fill="none" rx="3" ry="3" style="stroke:#038048;stroke-width:1.0;"/><text fill="#000000" font-family="sans-serif" font-size="14" lengthAdjust="spacing" textLength="107" x="2761" y="319.1697">SCREEN: Screen</text><rect fill="none" height="6" style="stroke:#C82930;stroke-width:1.0;" width="6" x="2749" y="331.3056"/><text fill="#000000" font-family="sans-serif" font-size="14" lengthAdjust="spacing" textLength="131" x="2761" y="338.2376">isRunning: Boolean</text><rect fill="none" height="6" style="stroke:#C82930;stroke-width:1.0;" width="6" x="2749" y="350.3735"/><text fill="#000000" font-family="sans-serif" font-size="14" lengthAdjust="spacing" textLength="81" x="2761" y="357.3055">cpuJob: Job?</text><rect fill="none" height="6" style="stroke:#C82930;stroke-width:1.0;" width="6" x="2749" y="369.4415"/><text fill="#000000" font-family="sans-serif" font-size="14" lengthAdjust="spacing" textLength="92" x="2761" y="376.3734">timerJob: Job?</text><line style="stroke:#181818;stroke-width:0.5;" x1="2742" x2="3116" y1="384.4754" y2="384.4754"/><ellipse cx="2752" cy="399.5094" fill="#84BE84" rx="3" ry="3" style="stroke:#038048;stroke-width:1.0;"/><text fill="#000000" font-family="sans-serif" font-size="14" lengthAdjust="spacing" textLength="165" x="2761" y="403.4414">executeProgramInROM()</text><ellipse cx="2752" cy="418.5773" fill="#84BE84" rx="3" ry="3" style="stroke:#038048;stroke-width:1.0;"/><text fill="#000000" font-family="sans-serif" font-size="14" lengthAdjust="spacing" textLength="37" x="2761" y="422.5093">stop()</text><ellipse cx="2752" cy="437.6452" fill="#84BE84" rx="3" ry="3" style="stroke:#038048;stroke-width:1.0;"/><text fill="#000000" font-family="sans-serif" font-size="14" lengthAdjust="spacing" textLength="37" x="2761" y="441.5772">step()</text><rect fill="#F24D5C" height="6" style="stroke:#C82930;stroke-width:1.0;" width="6" x="2749" y="453.7131"/><text fill="#000000" font-family="sans-serif" font-size="14" lengthAdjust="spacing" textLength="260" x="2761" y="460.6451">executeInstruction(rawInstruction: Int)</text><rect fill="#F24D5C" height="6" style="stroke:#C82930;stroke-width:1.0;" width="6" x="2749" y="472.781"/><text fill="#000000" font-family="sans-serif" font-size="14" lengthAdjust="spacing" textLength="350" x="2761" y="479.713">instructionFactory(opcode: Int): InstructionTemplate</text></g><!--class CPUContext--><g id="elem_CPUContext"><rect codeLine="49" fill="#F1F1F1" height="143.3396" id="CPUContext" rx="2.5" ry="2.5" style="stroke:#181818;stroke-width:0.5;" width="302" x="3483" y="794"/><ellipse cx="3590.75" cy="810" fill="#ADD1B2" rx="11" ry="11" style="stroke:#181818;stroke-width:1.0;"/><path d="M3593.7188,815.6406 Q3593.1406,815.9375 3592.5,816.0781 Q3591.8594,816.2344 3591.1563,816.2344 Q3588.6563,816.2344 3587.3281,814.5938 Q3586.0156,812.9375 3586.0156,809.8125 Q3586.0156,806.6875 3587.3281,805.0313 Q3588.6563,803.375 3591.1563,803.375 Q3591.8594,803.375 3592.5,803.5313 Q3593.1563,803.6875 3593.7188,803.9844 L3593.7188,806.7031 Q3593.0938,806.125 3592.5,805.8594 Q3591.9063,805.5781 3591.2813,805.5781 Q3589.9375,805.5781 3589.25,806.6563 Q3588.5625,807.7188 3588.5625,809.8125 Q3588.5625,811.9063 3589.25,812.9844 Q3589.9375,814.0469 3591.2813,814.0469 Q3591.9063,814.0469 3592.5,813.7813 Q3593.0938,813.5 3593.7188,812.9219 L3593.7188,815.6406 Z " fill="#000000"/><text fill="#000000" font-family="sans-serif" font-size="14" lengthAdjust="spacing" textLength="78" x="3611.25" y="815.432">CPUContext</text><line style="stroke:#181818;stroke-width:0.5;" x1="3484" x2="3784" y1="826" y2="826"/><ellipse cx="3494" cy="841.034" fill="none" rx="3" ry="3" style="stroke:#038048;stroke-width:1.0;"/><text fill="#000000" font-family="sans-serif" font-size="14" lengthAdjust="spacing" textLength="158" x="3503" y="844.9659">registers: CPURegisters</text><ellipse cx="3494" cy="860.1019" fill="none" rx="3" ry="3" style="stroke:#038048;stroke-width:1.0;"/><text fill="#000000" font-family="sans-serif" font-size="14" lengthAdjust="spacing" textLength="144" x="3503" y="864.0339">ram: MemoryAdapter</text><ellipse cx="3494" cy="879.1698" fill="none" rx="3" ry="3" style="stroke:#038048;stroke-width:1.0;"/><text fill="#000000" font-family="sans-serif" font-size="14" lengthAdjust="spacing" textLength="204" x="3503" y="883.1018">screenBuffer: MemoryAdapter</text><ellipse cx="3494" cy="898.2377" fill="none" rx="3" ry="3" style="stroke:#038048;stroke-width:1.0;"/><text fill="#000000" font-family="sans-serif" font-size="14" lengthAdjust="spacing" textLength="144" x="3503" y="902.1697">rom: MemoryAdapter</text><ellipse cx="3494" cy="917.3056" fill="none" rx="3" ry="3" style="stroke:#038048;stroke-width:1.0;"/><text fill="#000000" font-family="sans-serif" font-size="14" lengthAdjust="spacing" textLength="276" x="3503" y="921.2376">registerMap: MutableMap&lt;Int, Register&gt;</text><line style="stroke:#181818;stroke-width:0.5;" x1="3484" x2="3784" y1="929.3396" y2="929.3396"/></g><!--class CPURegisters--><g id="elem_CPURegisters"><rect codeLine="57" fill="#F1F1F1" height="276.815" id="CPURegisters" rx="2.5" ry="2.5" style="stroke:#181818;stroke-width:0.5;" width="122" x="3655" y="998"/><ellipse cx="3670" cy="1014" fill="#ADD1B2" rx="11" ry="11" style="stroke:#181818;stroke-width:1.0;"/><path d="M3672.9688,1019.6406 Q3672.3906,1019.9375 3671.75,1020.0781 Q3671.1094,1020.2344 3670.4063,1020.2344 Q3667.9063,1020.2344 3666.5781,1018.5938 Q3665.2656,1016.9375 3665.2656,1013.8125 Q3665.2656,1010.6875 3666.5781,1009.0313 Q3667.9063,1007.375 3670.4063,1007.375 Q3671.1094,1007.375 3671.75,1007.5313 Q3672.4063,1007.6875 3672.9688,1007.9844 L3672.9688,1010.7031 Q3672.3438,1010.125 3671.75,1009.8594 Q3671.1563,1009.5781 3670.5313,1009.5781 Q3669.1875,1009.5781 3668.5,1010.6563 Q3667.8125,1011.7188 3667.8125,1013.8125 Q3667.8125,1015.9063 3668.5,1016.9844 Q3669.1875,1018.0469 3670.5313,1018.0469 Q3671.1563,1018.0469 3671.75,1017.7813 Q3672.3438,1017.5 3672.9688,1016.9219 L3672.9688,1019.6406 Z " fill="#000000"/><text fill="#000000" font-family="sans-serif" font-size="14" lengthAdjust="spacing" textLength="90" x="3684" y="1019.432">CPURegisters</text><line style="stroke:#181818;stroke-width:0.5;" x1="3656" x2="3776" y1="1030" y2="1030"/><ellipse cx="3666" cy="1045.034" fill="none" rx="3" ry="3" style="stroke:#038048;stroke-width:1.0;"/><text fill="#000000" font-family="sans-serif" font-size="14" lengthAdjust="spacing" textLength="78" x="3675" y="1048.9659">r0: Register</text><ellipse cx="3666" cy="1064.1019" fill="none" rx="3" ry="3" style="stroke:#038048;stroke-width:1.0;"/><text fill="#000000" font-family="sans-serif" font-size="14" lengthAdjust="spacing" textLength="78" x="3675" y="1068.0339">r1: Register</text><ellipse cx="3666" cy="1083.1698" fill="none" rx="3" ry="3" style="stroke:#038048;stroke-width:1.0;"/><text fill="#000000" font-family="sans-serif" font-size="14" lengthAdjust="spacing" textLength="78" x="3675" y="1087.1018">r2: Register</text><ellipse cx="3666" cy="1102.2377" fill="none" rx="3" ry="3" style="stroke:#038048;stroke-width:1.0;"/><text fill="#000000" font-family="sans-serif" font-size="14" lengthAdjust="spacing" textLength="78" x="3675" y="1106.1697">r3: Register</text><ellipse cx="3666" cy="1121.3056" fill="none" rx="3" ry="3" style="stroke:#038048;stroke-width:1.0;"/><text fill="#000000" font-family="sans-serif" font-size="14" lengthAdjust="spacing" textLength="78" x="3675" y="1125.2376">r4: Register</text><ellipse cx="3666" cy="1140.3735" fill="none" rx="3" ry="3" style="stroke:#038048;stroke-width:1.0;"/><text fill="#000000" font-family="sans-serif" font-size="14" lengthAdjust="spacing" textLength="78" x="3675" y="1144.3055">r5: Register</text><ellipse cx="3666" cy="1159.4415" fill="none" rx="3" ry="3" style="stroke:#038048;stroke-width:1.0;"/><text fill="#000000" font-family="sans-serif" font-size="14" lengthAdjust="spacing" textLength="78" x="3675" y="1163.3734">r6: Register</text><ellipse cx="3666" cy="1178.5094" fill="none" rx="3" ry="3" style="stroke:#038048;stroke-width:1.0;"/><text fill="#000000" font-family="sans-serif" font-size="14" lengthAdjust="spacing" textLength="78" x="3675" y="1182.4414">r7: Register</text><ellipse cx="3666" cy="1197.5773" fill="none" rx="3" ry="3" style="stroke:#038048;stroke-width:1.0;"/><text fill="#000000" font-family="sans-serif" font-size="14" lengthAdjust="spacing" textLength="62" x="3675" y="1201.5093">P: UShort</text><ellipse cx="3666" cy="1216.6452" fill="none" rx="3" ry="3" style="stroke:#038048;stroke-width:1.0;"/><text fill="#000000" font-family="sans-serif" font-size="14" lengthAdjust="spacing" textLength="72" x="3675" y="1220.5772">T: Register</text><ellipse cx="3666" cy="1235.7131" fill="none" rx="3" ry="3" style="stroke:#038048;stroke-width:1.0;"/><text fill="#000000" font-family="sans-serif" font-size="14" lengthAdjust="spacing" textLength="63" x="3675" y="1239.6451">A: UShort</text><ellipse cx="3666" cy="1254.781" fill="none" rx="3" ry="3" style="stroke:#038048;stroke-width:1.0;"/><text fill="#000000" font-family="sans-serif" font-size="14" lengthAdjust="spacing" textLength="75" x="3675" y="1258.713">M: Boolean</text><line style="stroke:#181818;stroke-width:0.5;" x1="3656" x2="3776" y1="1266.815" y2="1266.815"/></g><!--class Register--><g id="elem_Register"><rect codeLine="72" fill="#F1F1F1" height="67.0679" id="Register" rx="2.5" ry="2.5" style="stroke:#181818;stroke-width:0.5;" width="109" x="3661.5" y="1374"/><ellipse cx="3685.95" cy="1390" fill="#ADD1B2" rx="11" ry="11" style="stroke:#181818;stroke-width:1.0;"/><path d="M3688.9188,1395.6406 Q3688.3406,1395.9375 3687.7,1396.0781 Q3687.0594,1396.2344 3686.3563,1396.2344 Q3683.8563,1396.2344 3682.5281,1394.5938 Q3681.2156,1392.9375 3681.2156,1389.8125 Q3681.2156,1386.6875 3682.5281,1385.0313 Q3683.8563,1383.375 3686.3563,1383.375 Q3687.0594,1383.375 3687.7,1383.5313 Q3688.3563,1383.6875 3688.9188,1383.9844 L3688.9188,1386.7031 Q3688.2938,1386.125 3687.7,1385.8594 Q3687.1063,1385.5781 3686.4813,1385.5781 Q3685.1375,1385.5781 3684.45,1386.6563 Q3683.7625,1387.7188 3683.7625,1389.8125 Q3683.7625,1391.9063 3684.45,1392.9844 Q3685.1375,1394.0469 3686.4813,1394.0469 Q3687.1063,1394.0469 3687.7,1393.7813 Q3688.2938,1393.5 3688.9188,1392.9219 L3688.9188,1395.6406 Z " fill="#000000"/><text fill="#000000" font-family="sans-serif" font-size="14" lengthAdjust="spacing" textLength="56" x="3702.05" y="1395.432">Register</text><line style="stroke:#181818;stroke-width:0.5;" x1="3662.5" x2="3769.5" y1="1406" y2="1406"/><ellipse cx="3672.5" cy="1421.034" fill="none" rx="3" ry="3" style="stroke:#038048;stroke-width:1.0;"/><text fill="#000000" font-family="sans-serif" font-size="14" lengthAdjust="spacing" textLength="83" x="3681.5" y="1424.9659">value: UByte</text><line style="stroke:#181818;stroke-width:0.5;" x1="3662.5" x2="3769.5" y1="1433.0679" y2="1433.0679"/></g><!--class Observable--><g id="elem_Observable"><rect codeLine="102" fill="#F1F1F1" height="124.2717" id="Observable" rx="2.5" ry="2.5" style="stroke:#181818;stroke-width:0.5;" width="345" x="279.5" y="1074.5"/><ellipse cx="412.25" cy="1090.5" fill="#B4A7E5" rx="11" ry="11" style="stroke:#181818;stroke-width:1.0;"/><path d="M408.1719,1086.2656 L408.1719,1084.1094 L415.5625,1084.1094 L415.5625,1086.2656 L413.0938,1086.2656 L413.0938,1094.3438 L415.5625,1094.3438 L415.5625,1096.5 L408.1719,1096.5 L408.1719,1094.3438 L410.6406,1094.3438 L410.6406,1086.2656 L408.1719,1086.2656 Z " fill="#000000"/><text fill="#000000" font-family="sans-serif" font-size="14" font-style="italic" lengthAdjust="spacing" textLength="71" x="432.75" y="1095.932">Observable</text><line style="stroke:#181818;stroke-width:0.5;" x1="280.5" x2="623.5" y1="1106.5" y2="1106.5"/><ellipse cx="290.5" cy="1121.534" fill="none" rx="3" ry="3" style="stroke:#038048;stroke-width:1.0;"/><text fill="#000000" font-family="sans-serif" font-size="14" lengthAdjust="spacing" textLength="319" x="299.5" y="1125.4659">observers: MutableList&lt;ScreenBufferObserver&gt;</text><line style="stroke:#181818;stroke-width:0.5;" x1="280.5" x2="623.5" y1="1133.5679" y2="1133.5679"/><ellipse cx="290.5" cy="1148.6019" fill="#84BE84" rx="3" ry="3" style="stroke:#038048;stroke-width:1.0;"/><text fill="#000000" font-family="sans-serif" font-size="14" lengthAdjust="spacing" textLength="115" x="299.5" y="1152.5339">notifyObservers()</text><ellipse cx="290.5" cy="1167.6698" fill="#84BE84" rx="3" ry="3" style="stroke:#038048;stroke-width:1.0;"/><text fill="#000000" font-family="sans-serif" font-size="14" lengthAdjust="spacing" textLength="291" x="299.5" y="1171.6018">subscribe(observer: ScreenBufferObserver)</text><ellipse cx="290.5" cy="1186.7377" fill="#84BE84" rx="3" ry="3" style="stroke:#038048;stroke-width:1.0;"/><text fill="#000000" font-family="sans-serif" font-size="14" lengthAdjust="spacing" textLength="309" x="299.5" y="1190.6697">unsubscribe(observer: ScreenBufferObserver)</text></g><!--class ScreenBufferObserver--><g id="elem_ScreenBufferObserver"><rect codeLine="109" fill="#F1F1F1" height="67.0679" id="ScreenBufferObserver" rx="2.5" ry="2.5" style="stroke:#181818;stroke-width:0.5;" width="220" x="2909" y="1560"/><ellipse cx="2947.85" cy="1576" fill="#B4A7E5" rx="11" ry="11" style="stroke:#181818;stroke-width:1.0;"/><path d="M2943.7719,1571.7656 L2943.7719,1569.6094 L2951.1625,1569.6094 L2951.1625,1571.7656 L2948.6938,1571.7656 L2948.6938,1579.8438 L2951.1625,1579.8438 L2951.1625,1582 L2943.7719,1582 L2943.7719,1579.8438 L2946.2406,1579.8438 L2946.2406,1571.7656 L2943.7719,1571.7656 Z " fill="#000000"/><text fill="#000000" font-family="sans-serif" font-size="14" font-style="italic" lengthAdjust="spacing" textLength="135" x="2967.15" y="1581.432">ScreenBufferObserver</text><line style="stroke:#181818;stroke-width:0.5;" x1="2910" x2="3128" y1="1592" y2="1592"/><line style="stroke:#181818;stroke-width:0.5;" x1="2910" x2="3128" y1="1600" y2="1600"/><ellipse cx="2920" cy="1615.034" fill="#84BE84" rx="3" ry="3" style="stroke:#038048;stroke-width:1.0;"/><text fill="#000000" font-family="sans-serif" font-size="14" lengthAdjust="spacing" textLength="194" x="2929" y="1618.9659">update(memory: UByteArray)</text></g><!--class Screen--><g id="elem_Screen"><rect codeLine="113" fill="#F1F1F1" height="67.0679" id="Screen" rx="2.5" ry="2.5" style="stroke:#181818;stroke-width:0.5;" width="220" x="3355" y="1688"/><ellipse cx="3437.75" cy="1704" fill="#ADD1B2" rx="11" ry="11" style="stroke:#181818;stroke-width:1.0;"/><path d="M3440.7188,1709.6406 Q3440.1406,1709.9375 3439.5,1710.0781 Q3438.8594,1710.2344 3438.1563,1710.2344 Q3435.6563,1710.2344 3434.3281,1708.5938 Q3433.0156,1706.9375 3433.0156,1703.8125 Q3433.0156,1700.6875 3434.3281,1699.0313 Q3435.6563,1697.375 3438.1563,1697.375 Q3438.8594,1697.375 3439.5,1697.5313 Q3440.1563,1697.6875 3440.7188,1697.9844 L3440.7188,1700.7031 Q3440.0938,1700.125 3439.5,1699.8594 Q3438.9063,1699.5781 3438.2813,1699.5781 Q3436.9375,1699.5781 3436.25,1700.6563 Q3435.5625,1701.7188 3435.5625,1703.8125 Q3435.5625,1705.9063 3436.25,1706.9844 Q3436.9375,1708.0469 3438.2813,1708.0469 Q3438.9063,1708.0469 3439.5,1707.7813 Q3440.0938,1707.5 3440.7188,1706.9219 L3440.7188,1709.6406 Z " fill="#000000"/><text fill="#000000" font-family="sans-serif" font-size="14" lengthAdjust="spacing" textLength="46" x="3458.25" y="1709.432">Screen</text><line style="stroke:#181818;stroke-width:0.5;" x1="3356" x2="3574" y1="1720" y2="1720"/><line style="stroke:#181818;stroke-width:0.5;" x1="3356" x2="3574" y1="1728" y2="1728"/><ellipse cx="3366" cy="1743.034" fill="#84BE84" rx="3" ry="3" style="stroke:#038048;stroke-width:1.0;"/><text fill="#000000" font-family="sans-serif" font-size="14" lengthAdjust="spacing" textLength="194" x="3375" y="1746.9659">update(memory: UByteArray)</text></g><g id="elem_GMN66"><path d="M3152.5,327 L3152.5,345.5 L3117.06,349.5 L3152.5,353.5 L3152.5,372.412 A0,0 0 0 0 3152.5,372.412 L3293.5,372.412 A0,0 0 0 0 3293.5,372.412 L3293.5,337 L3283.5,327 L3152.5,327 A0,0 0 0 0 3152.5,327 " fill="#FEFFDD" style="stroke:#181818;stroke-width:0.5;"/><path d="M3283.5,327 L3283.5,337 L3293.5,337 L3283.5,327 " fill="#FEFFDD" style="stroke:#181818;stroke-width:0.5;"/><text fill="#000000" font-family="sans-serif" font-size="13" lengthAdjust="spacing" textLength="116" x="3158.5" y="345.897">Uses coroutines for</text><text fill="#000000" font-family="sans-serif" font-size="13" lengthAdjust="spacing" textLength="120" x="3158.5" y="363.603">timer and execution</text></g><g id="elem_GMN69"><path d="M1409.5,1385 L1409.5,1430.412 L1608.5,1430.412 L1608.5,1395 L1598.5,1385 L1409.5,1385 " fill="#FEFFDD" style="stroke:#181818;stroke-width:0.5;"/><path d="M1598.5,1385 L1598.5,1395 L1608.5,1395 L1598.5,1385 " fill="#FEFFDD" style="stroke:#181818;stroke-width:1.0;"/><text fill="#000000" font-family="sans-serif" font-size="13" lengthAdjust="spacing" textLength="178" x="1415.5" y="1403.897">Implements Observer pattern</text><text fill="#000000" font-family="sans-serif" font-size="13" lengthAdjust="spacing" textLength="111" x="1415.5" y="1421.603">for screen updates</text></g><g id="elem_GMN72"><path d="M3477,630.5 L3477,649 L2350.13,653 L3477,657 L3477,675.912 A0,0 0 0 0 3477,675.912 L3673,675.912 A0,0 0 0 0 3673,675.912 L3673,640.5 L3663,630.5 L3477,630.5 A0,0 0 0 0 3477,630.5 " fill="#FEFFDD" style="stroke:#181818;stroke-width:0.5;"/><path d="M3663,630.5 L3663,640.5 L3673,640.5 L3663,630.5 " fill="#FEFFDD" style="stroke:#181818;stroke-width:0.5;"/><text fill="#000000" font-family="sans-serif" font-size="13" lengthAdjust="spacing" textLength="175" x="3483" y="649.397">Template method pattern for</text><text fill="#000000" font-family="sans-serif" font-size="13" lengthAdjust="spacing" textLength="127" x="3483" y="667.103">instruction execution</text></g><!--reverse link Emulator to CPU--><g id="link_Emulator_CPU"><path codeLine="118" d="M357.0431,97.1871 C843.4131,144.7171 2231.69,280.36 2740.95,330.13 " fill="none" id="Emulator-backto-CPU" style="stroke:#181818;stroke-width:1.0;"/><polygon fill="#181818" points="345.1,96.02,350.6825,100.5846,357.0431,97.1871,351.4606,92.6225,345.1,96.02" style="stroke:#181818;stroke-width:1.0;"/></g><!--reverse link Emulator to ROM--><g id="link_Emulator_ROM"><path codeLine="119" d="M166.6496,162.1278 C161.1096,216.3178 156,281.06 156,348.5 C156,348.5 156,348.5 156,755.5 C156,849.37 186.37,884.23 264,937 C404.74,1032.67 488.14,925.29 642,998 C839.23,1091.21 1015.46,1294.36 1079.45,1373.77 " fill="none" id="Emulator-backto-ROM" style="stroke:#181818;stroke-width:1.0;"/><polygon fill="#181818" points="167.87,150.19,163.2805,155.7521,166.6496,162.1278,171.239,156.5657,167.87,150.19" style="stroke:#181818;stroke-width:1.0;"/></g><!--reverse link CPU to CPURegisters--><g id="link_CPU_CPURegisters"><path codeLine="120" d="M3128.4299,485.956 C3134.3099,488.326 3129.08,486.03 3135,488 C3270.48,533.08 3684.57,434.5 3775,545 C3885.63,680.17 3838.82,766.05 3803,937 C3797.35,963.98 3787.81,991.77 3777.07,1017.7 " fill="none" id="CPU-backto-CPURegisters" style="stroke:#181818;stroke-width:1.0;"/><polygon fill="#181818" points="3117.3,481.47,3121.3696,487.423,3128.4299,485.956,3124.3603,480.003,3117.3,481.47" style="stroke:#181818;stroke-width:1.0;"/></g><!--reverse link CPU to ScreenBuffer--><g id="link_CPU_ScreenBuffer"><path codeLine="121" d="M2728.981,352.587 C2154.161,360.107 459.36,394.82 264,545 C224.11,575.67 227,601.68 227,652 C227,652 227,652 227,1137.5 C227,1200.56 216.94,1230.88 262,1275 C317.36,1329.22 510.11,1365.72 655.41,1386.24 " fill="none" id="CPU-backto-ScreenBuffer" style="stroke:#181818;stroke-width:1.0;"/><polygon fill="#181818" points="2740.98,352.43,2734.9282,348.5088,2728.981,352.587,2735.0328,356.5081,2740.98,352.43" style="stroke:#181818;stroke-width:1.0;"/></g><!--reverse link CPU to Screen--><g id="link_CPU_Screen"><path codeLine="122" d="M3128.4165,485.9997 C3134.2965,488.3597 3129.08,486.05 3135,488 C3271.1,532.73 3640.11,482.85 3779,518 C3860.35,538.59 3912,568.09 3912,652 C3912,652 3912,652 3912,1594.5 C3912,1664.29 3707.57,1697.31 3575.21,1711.38 " fill="none" id="CPU-backto-Screen" style="stroke:#181818;stroke-width:1.0;"/><polygon fill="#181818" points="3117.28,481.53,3121.3583,487.477,3128.4165,485.9997,3124.3382,480.0527,3117.28,481.53" style="stroke:#181818;stroke-width:1.0;"/></g><!--link CPU to CPUContext--><g id="link_CPU_CPUContext"><path codeLine="123" d="M3117.13,480.96 C3123.07,483.5 3129.03,485.85 3135,488 C3251.87,530.05 3607.77,452.81 3691,545 C3752.07,612.65 3715.9574,717.026 3679.0674,788.646 " fill="none" id="CPU-to-CPUContext" style="stroke:#181818;stroke-width:1.0;stroke-dasharray:7.0,7.0;"/><polygon fill="#181818" points="3676.32,793.98,3683.9972,787.8106,3678.6095,789.535,3676.8852,784.1474,3676.32,793.98" style="stroke:#181818;stroke-width:1.0;"/><text fill="#000000" font-family="sans-serif" font-size="13" lengthAdjust="spacing" textLength="43" x="3723" y="658.397">creates</text></g><!--reverse link CPUContext to CPURegisters--><g id="link_CPUContext_CPURegisters"><path codeLine="124" d="M3659.0415,948.6578 C3664.7615,967.4078 3667.64,976.85 3674.04,997.86 " fill="none" id="CPUContext-backto-CPURegisters" style="stroke:#181818;stroke-width:1.0;"/><polygon fill="#181818" points="3655.54,937.18,3653.4648,944.0861,3659.0415,948.6578,3661.1167,941.7517,3655.54,937.18" style="stroke:#181818;stroke-width:1.0;"/></g><!--reverse link CPUContext to MemoryAdapter--><g id="link_CPUContext_MemoryAdapter"><path codeLine="125" d="M3471.4627,934.4867 C3464.1027,936.6867 3468.25,935.25 3461,937 C3047.12,1036.86 1731.48,1108.25 1306.66,1129.18 " fill="none" id="CPUContext-backto-MemoryAdapter" style="stroke:#181818;stroke-width:1.0;"/><polygon fill="#181818" points="3482.96,931.05,3476.0658,928.9359,3471.4627,934.4867,3478.3569,936.6008,3482.96,931.05" style="stroke:#181818;stroke-width:1.0;"/></g><!--reverse link CPURegisters to Register--><g id="link_CPURegisters_Register"><path codeLine="126" d="M3716,1287.15 C3716,1324.12 3716,1348.77 3716,1373.93 " fill="none" id="CPURegisters-backto-Register" style="stroke:#181818;stroke-width:1.0;"/><polygon fill="#181818" points="3716,1275.15,3712,1281.15,3716,1287.15,3720,1281.15,3716,1275.15" style="stroke:#181818;stroke-width:1.0;"/></g><!--reverse link MemoryAdapter to RAM--><g id="link_MemoryAdapter_RAM"><path codeLine="128" d="M1203.0841,1205.5103 C1227.1841,1259.9703 1257.16,1327.74 1277.51,1373.75 " fill="none" id="MemoryAdapter-backto-RAM" style="stroke:#181818;stroke-width:1.0;stroke-dasharray:7.0,7.0;"/><polygon fill="none" points="1195.8,1189.05,1197.5974,1207.9383,1208.5709,1203.0823,1195.8,1189.05" style="stroke:#181818;stroke-width:1.0;"/></g><!--reverse link MemoryAdapter to ROM--><g id="link_MemoryAdapter_ROM"><path codeLine="129" d="M1155.5576,1206.5008 C1141.7876,1260.9608 1124.91,1327.74 1113.28,1373.75 " fill="none" id="MemoryAdapter-backto-ROM" style="stroke:#181818;stroke-width:1.0;stroke-dasharray:7.0,7.0;"/><polygon fill="none" points="1159.97,1189.05,1149.7407,1205.03,1161.3746,1207.9716,1159.97,1189.05" style="stroke:#181818;stroke-width:1.0;"/></g><!--reverse link MemoryAdapter to ScreenBuffer--><g id="link_MemoryAdapter_ScreenBuffer"><path codeLine="130" d="M1092.6947,1200.1177 C1039.2747,1241.7677 977.73,1289.75 918.66,1335.81 " fill="none" id="MemoryAdapter-backto-ScreenBuffer" style="stroke:#181818;stroke-width:1.0;stroke-dasharray:7.0,7.0;"/><polygon fill="none" points="1106.89,1189.05,1089.0055,1195.3859,1096.3839,1204.8494,1106.89,1189.05" style="stroke:#181818;stroke-width:1.0;"/></g><!--reverse link Observable to ScreenBuffer--><g id="link_Observable_ScreenBuffer"><path codeLine="132" d="M531.5382,1210.8356 C569.1182,1244.3256 604.42,1273.48 651,1306 C665.63,1316.22 681.38,1326.31 697.23,1335.94 " fill="none" id="Observable-backto-ScreenBuffer" style="stroke:#181818;stroke-width:1.0;stroke-dasharray:7.0,7.0;"/><polygon fill="none" points="518.1,1198.86,527.5463,1215.315,535.53,1206.3562,518.1,1198.86" style="stroke:#181818;stroke-width:1.0;"/></g><!--reverse link ScreenBufferObserver to Screen--><g id="link_ScreenBufferObserver_Screen"><path codeLine="133" d="M3146.572,1630.5437 C3215.312,1649.9637 3286.14,1669.97 3354.86,1689.38 " fill="none" id="ScreenBufferObserver-backto-Screen" style="stroke:#181818;stroke-width:1.0;stroke-dasharray:7.0,7.0;"/><polygon fill="none" points="3129.25,1625.65,3144.9408,1636.3177,3148.2032,1624.7697,3129.25,1625.65" style="stroke:#181818;stroke-width:1.0;"/></g><!--link ScreenBuffer to ScreenBufferObserver--><g id="link_ScreenBuffer_ScreenBufferObserver"><path codeLine="134" d="M951.61,1479.09 C973.16,1488.72 995.8,1497.26 1018,1503 C1201.01,1550.34 2510.7014,1581.7014 2902.9214,1590.1114 " fill="none" id="ScreenBuffer-to-ScreenBufferObserver" style="stroke:#181818;stroke-width:1.0;"/><polygon fill="#181818" points="2908.92,1590.24,2900.0078,1586.048,2903.9211,1590.1328,2899.8363,1594.0461,2908.92,1590.24" style="stroke:#181818;stroke-width:1.0;"/><text fill="#000000" font-family="sans-serif" font-size="13" lengthAdjust="spacing" textLength="44" x="1229" y="1525.897">notifies</text></g><!--link CPU to InstructionTemplate--><g id="link_CPU_InstructionTemplate"><path codeLine="136" d="M2741,420.05 C2601.38,471.7 2418.3873,539.3984 2284.5973,588.8884 " fill="none" id="CPU-to-InstructionTemplate" style="stroke:#181818;stroke-width:1.0;stroke-dasharray:7.0,7.0;"/><polygon fill="#181818" points="2278.97,590.97,2288.7987,591.5992,2283.6594,589.2353,2286.0233,584.096,2278.97,590.97" style="stroke:#181818;stroke-width:1.0;"/><text fill="#000000" font-family="sans-serif" font-size="13" lengthAdjust="spacing" textLength="27" x="2473" y="532.897">uses</text></g><!--reverse link InstructionTemplate to StoreInstruction--><g id="link_InstructionTemplate_StoreInstruction"><path codeLine="137" d="M1859.8373,666.5166 C1700.8973,681.2966 1508.06,714.1 1338,794 C1313.2,805.65 1289.2,825.65 1272.55,841.37 " fill="none" id="InstructionTemplate-backto-StoreInstruction" style="stroke:#181818;stroke-width:1.0;stroke-dasharray:7.0,7.0;"/><polygon fill="none" points="1877.76,664.85,1859.2818,660.5424,1860.3929,672.4909,1877.76,664.85" style="stroke:#181818;stroke-width:1.0;"/></g><!--reverse link InstructionTemplate to AddInstruction--><g id="link_InstructionTemplate_AddInstruction"><path codeLine="138" d="M1859.9099,685.4353 C1743.8899,705.7553 1622.34,736.92 1507,794 C1483.12,805.82 1460.11,825.59 1444.07,841.19 " fill="none" id="InstructionTemplate-backto-AddInstruction" style="stroke:#181818;stroke-width:1.0;stroke-dasharray:7.0,7.0;"/><polygon fill="none" points="1877.64,682.33,1858.8748,679.5253,1860.945,691.3453,1877.64,682.33" style="stroke:#181818;stroke-width:1.0;"/></g><!--reverse link InstructionTemplate to SubInstruction--><g id="link_InstructionTemplate_SubInstruction"><path codeLine="139" d="M1860.5927,715.9877 C1792.5527,737.1577 1736.94,759.36 1674,794 C1650.98,806.67 1628.37,826.17 1612.42,841.45 " fill="none" id="InstructionTemplate-backto-SubInstruction" style="stroke:#181818;stroke-width:1.0;stroke-dasharray:7.0,7.0;"/><polygon fill="none" points="1877.78,710.64,1858.8102,710.2586,1862.3753,721.7168,1877.78,710.64" style="stroke:#181818;stroke-width:1.0;"/></g><!--reverse link InstructionTemplate to ReadInstruction--><g id="link_InstructionTemplate_ReadInstruction"><path codeLine="140" d="M1970.5114,723.3989 C1925.9614,746.3689 1892.28,765.6 1849,794 C1827.23,808.28 1804.33,826.76 1787.35,841.21 " fill="none" id="InstructionTemplate-backto-ReadInstruction" style="stroke:#181818;stroke-width:1.0;stroke-dasharray:7.0,7.0;"/><polygon fill="none" points="1986.51,715.15,1967.7618,718.066,1973.261,728.7318,1986.51,715.15" style="stroke:#181818;stroke-width:1.0;"/></g><!--reverse link InstructionTemplate to WriteInstruction--><g id="link_InstructionTemplate_WriteInstruction"><path codeLine="141" d="M2050.9852,728.9465 C2015.4652,771.1865 1981.8,811.22 1956.46,841.35 " fill="none" id="InstructionTemplate-backto-WriteInstruction" style="stroke:#181818;stroke-width:1.0;stroke-dasharray:7.0,7.0;"/><polygon fill="none" points="2062.57,715.17,2046.393,725.0849,2055.5774,732.8081,2062.57,715.17" style="stroke:#181818;stroke-width:1.0;"/></g><!--reverse link InstructionTemplate to JumpInstruction--><g id="link_InstructionTemplate_JumpInstruction"><path codeLine="142" d="M2114,733.17 C2114,775.41 2114,811.22 2114,841.35 " fill="none" id="InstructionTemplate-backto-JumpInstruction" style="stroke:#181818;stroke-width:1.0;stroke-dasharray:7.0,7.0;"/><polygon fill="none" points="2114,715.17,2108,733.17,2120,733.17,2114,715.17" style="stroke:#181818;stroke-width:1.0;"/></g><!--reverse link InstructionTemplate to ReadKeyboardInstruction--><g id="link_InstructionTemplate_ReadKeyboardInstruction"><path codeLine="143" d="M2187.0919,727.9735 C2228.8319,770.2135 2269.35,811.22 2299.13,841.35 " fill="none" id="InstructionTemplate-backto-ReadKeyboardInstruction" style="stroke:#181818;stroke-width:1.0;stroke-dasharray:7.0,7.0;"/><polygon fill="none" points="2174.44,715.17,2182.8241,732.1908,2191.3597,723.7562,2174.44,715.17" style="stroke:#181818;stroke-width:1.0;"/></g><!--reverse link InstructionTemplate to SwitchMemoryInstruction--><g id="link_InstructionTemplate_SwitchMemoryInstruction"><path codeLine="144" d="M2284.7362,721.9552 C2340.2562,745.1752 2386.31,765.9 2442,794 C2470.69,808.48 2501.96,826.94 2525.38,841.34 " fill="none" id="InstructionTemplate-backto-SwitchMemoryInstruction" style="stroke:#181818;stroke-width:1.0;stroke-dasharray:7.0,7.0;"/><polygon fill="none" points="2268.13,715.01,2282.4211,727.4905,2287.0512,716.4198,2268.13,715.01" style="stroke:#181818;stroke-width:1.0;"/></g><!--reverse link InstructionTemplate to SkipEqualInstruction--><g id="link_InstructionTemplate_SkipEqualInstruction"><path codeLine="145" d="M2367.8532,696.4314 C2472.3532,718.4514 2577.38,747.44 2682,794 C2709.5,806.24 2737.57,825.77 2757.61,841.17 " fill="none" id="InstructionTemplate-backto-SkipEqualInstruction" style="stroke:#181818;stroke-width:1.0;stroke-dasharray:7.0,7.0;"/><polygon fill="none" points="2350.24,692.72,2366.6161,702.3025,2369.0904,690.5603,2350.24,692.72" style="stroke:#181818;stroke-width:1.0;"/></g><!--reverse link InstructionTemplate to SkipNotEqualInstruction--><g id="link_InstructionTemplate_SkipNotEqualInstruction"><path codeLine="146" d="M2368.0057,675.7421 C2525.0057,694.2921 2715.71,727.56 2890,794 C2920.63,805.68 2952.16,825.67 2974.43,841.39 " fill="none" id="InstructionTemplate-backto-SkipNotEqualInstruction" style="stroke:#181818;stroke-width:1.0;stroke-dasharray:7.0,7.0;"/><polygon fill="none" points="2350.13,673.63,2367.3016,681.7006,2368.7097,669.7835,2350.13,673.63" style="stroke:#181818;stroke-width:1.0;"/></g><!--reverse link InstructionTemplate to SetAInstruction--><g id="link_InstructionTemplate_SetAInstruction"><path codeLine="147" d="M2368.1344,673.2957 C2621.3244,694.9757 2987.04,734.7 3121,794 C3145.72,804.94 3168.99,825.22 3184.92,841.23 " fill="none" id="InstructionTemplate-backto-SetAInstruction" style="stroke:#181818;stroke-width:1.0;stroke-dasharray:7.0,7.0;"/><polygon fill="none" points="2350.2,671.76,2367.6225,679.2738,2368.6463,667.3175,2350.2,671.76" style="stroke:#181818;stroke-width:1.0;"/></g><!--reverse link InstructionTemplate to SetTInstruction--><g id="link_InstructionTemplate_SetTInstruction"><path codeLine="148" d="M2368.3863,675.7776 C2547.1463,692.0076 2780.49,715.34 3000,745 C3130.41,762.62 3172.35,739.22 3292,794 C3316.58,805.25 3339.87,825.5 3355.83,841.41 " fill="none" id="InstructionTemplate-backto-SetTInstruction" style="stroke:#181818;stroke-width:1.0;stroke-dasharray:7.0,7.0;"/><polygon fill="none" points="2350.46,674.15,2367.8437,681.753,2368.9288,669.8021,2350.46,674.15" style="stroke:#181818;stroke-width:1.0;"/></g><!--reverse link InstructionTemplate to ReadTInstruction--><g id="link_InstructionTemplate_ReadTInstruction"><path codeLine="149" d="M1860.0001,667.8607 C1602.5501,682.7707 1196.43,708.96 832,745 C659.91,762.02 605.94,728.24 446,794 C419.57,804.87 394.16,825.37 376.76,841.47 " fill="none" id="InstructionTemplate-backto-ReadTInstruction" style="stroke:#181818;stroke-width:1.0;stroke-dasharray:7.0,7.0;"/><polygon fill="none" points="1877.97,666.82,1859.6532,661.8707,1860.347,673.8507,1877.97,666.82" style="stroke:#181818;stroke-width:1.0;"/></g><!--reverse link InstructionTemplate to ConvertToBaseTenInstruction--><g id="link_InstructionTemplate_ConvertToBaseTenInstruction"><path codeLine="150" d="M1859.8486,673.8213 C1652.5386,690.5913 1360.95,715.7 1092,745 C922.71,763.44 874.28,742.4 712,794 C676.88,805.16 640.1,825.42 614.14,841.36 " fill="none" id="InstructionTemplate-backto-ConvertToBaseTenInstruction" style="stroke:#181818;stroke-width:1.0;stroke-dasharray:7.0,7.0;"/><polygon fill="none" points="1877.79,672.37,1859.3648,667.8409,1860.3324,679.8018,1877.79,672.37" style="stroke:#181818;stroke-width:1.0;"/></g><!--reverse link InstructionTemplate to ConvertByteToASCIIInstruction--><g id="link_InstructionTemplate_ConvertByteToASCIIInstruction"><path codeLine="151" d="M1860.0113,674.9209 C1684.6313,690.5809 1457.73,713.58 1244,745 C1128.52,761.97 1096.36,756.02 986,794 C950.84,806.1 913.47,825.84 886.66,841.37 " fill="none" id="InstructionTemplate-backto-ConvertByteToASCIIInstruction" style="stroke:#181818;stroke-width:1.0;stroke-dasharray:7.0,7.0;"/><polygon fill="none" points="1877.94,673.32,1859.4777,668.9447,1860.545,680.8971,1877.94,673.32" style="stroke:#181818;stroke-width:1.0;"/></g><!--reverse link InstructionTemplate to DrawInstruction--><g id="link_InstructionTemplate_DrawInstruction"><path codeLine="152" d="M1859.8061,682.4966 C1722.3861,698.8466 1563.95,719.45 1408,745 C1297.99,763.03 1263.05,746.92 1162,794 C1137.16,805.57 1113.17,825.57 1096.53,841.32 " fill="none" id="InstructionTemplate-backto-DrawInstruction" style="stroke:#181818;stroke-width:1.0;stroke-dasharray:7.0,7.0;"/><polygon fill="none" points="1877.68,680.37,1859.0972,676.5386,1860.5149,688.4546,1877.68,680.37" style="stroke:#181818;stroke-width:1.0;"/></g><!--link InstructionTemplate to CPUContext--><g id="link_InstructionTemplate_CPUContext"><path codeLine="154" d="M2350.22,655.91 C2622.46,663.28 3081.17,691.64 3461,794 C3468.2,795.94 3469.7919,796.2824 3477.1219,798.6124 " fill="none" id="InstructionTemplate-to-CPUContext" style="stroke:#181818;stroke-width:1.0;stroke-dasharray:7.0,7.0;"/><polygon fill="#181818" points="3482.84,800.43,3475.4746,793.8915,3478.0749,798.9153,3473.0512,801.5156,3482.84,800.43" style="stroke:#181818;stroke-width:1.0;"/><text fill="#000000" font-family="sans-serif" font-size="13" lengthAdjust="spacing" textLength="27" x="3319" y="759.897">uses</text></g><!--link ScreenBuffer to GMN69--><g id="link_ScreenBuffer_GMN69"><path d="M950.47,1335.95 C977.62,1323.36 1006.86,1312.16 1035.5,1305.5 C1108.44,1288.54 1301.43,1281.88 1372.5,1305.5 C1419.38,1321.08 1463.19,1359.74 1487.98,1384.74 " fill="none" id="ScreenBuffer-GMN69" style="stroke:#181818;stroke-width:1.0;stroke-dasharray:7.0,7.0;"/></g><!--SRC=[bLRRRkCs47ttL_2jIZSEUYyW15dOhWDuMyU1xQ0l2nIqHDl4MgJAIx9kk__U8Id98arwanU9CtCu798pXrCSi9HeMka3LboWVmS8lLikvZc2ZnbF7fzo11ypbWeBbLsv8Q_TwC1n-IZuJk0gewpM2eHdMXAHe-mA3U_GIWdATk-ldCilWq6DYqzuHr15AYwETadA515RN10qjyfHYMlGM9jPZVv3SZHZoec2u3B3PIc8b3bwMksvKE3-QNnKn25U15KaX5oZPtpGf06Qu24OX0fx0ilHl5bjwE9gO2CXy360BZfeYHLE0rU588IDzNRRRINk72Bc6qd4Cn4GxLmhl3cGFwXKjtqNYmPovsOmhkZss2gblGrpLdeZ2q4t96jTvYZcfO5hzfO9NypzkSr1JhXi4MG7aTh8GRTi9Pj88qWaxqQDTZLPJgSFVusVxk-dIt-jaxdLWsP8vL8p1acKep7d1uAjjgZr1xx94NpU6rdHYeY-vXtvJ0gjI9ETCmON5sOlXEf6mmOyOr89NIZAMIRmIq-q2MYXzAIynmMKpJ7ZTS5BbwDNvji1rgIgeRI8Tt0J3ld-MNtr_23goFd9te55p8B79hMhp77TPHYCRo7WQzGkUkT5sONInFbTtW6j_7qW_n38FmRoJu7ySo3_4iY_-l9ZMyT6MFksKTysFwL9jvqMxBRIvu4-8_KkLWQy5BdIbfsQpCbea2lNg73tdFVkl2cx6Wj97kW6Ra6UJOGCCbVZYFFQQ9gIho4OBge5_B7DKEOydEClhktgOSArsLsM0FPv35AyNnYTOLIMCVLARsBg9T1sJF-d8UkOuOEkwfIZtybnmx68h_z2LR5t9H2rVwBrz6-D3odZ0rTfEr6ZX7wT2ZPgWBC6LbLhFiQIh0cxW35vkkQZrMGsYw5-yudAPFGfSHrzct9tkV_6XoRwpBpfaNdJ4-E57eEuJUWQNbwIdJ-cLwUITxDVW_y6BkbW2qhkQIq7NJVqxN1eUnzFOReOy_WrnXDXjqhlGVELLhovkUi_0Za24qHd7RJAcFE-pUTtZwnjZ2qt3ln-wlQ_cnlJwaJLYwZQsysWbqtdrkXzzM0U00rDRnYRaIERSnHEf3kl6FtcI4l0n4nkqP2saiY0nz8UVM9BuaAcImBFg2-93BdmujenSanlAi6MwGan-ho8Zl5fUa90i9U0wrSVoUkGbpZvQvCI99sS5h9s57d65JRb1r0W10cwsol4jxOL1r832xpwWcj56GoXK_Z8R5ECC2kHwrBCGlvahoQX_O25IKMOagWho1ehe0FsaO5BvBfFv1XL1ixYPTeDAwBsl6pzkGXxpKylnly1]--></g></svg>