<?xml version="1.0" encoding="us-ascii" standalone="no"?><svg xmlns="http://www.w3.org/2000/svg" xmlns:xlink="http://www.w3.org/1999/xlink" contentStyleType="text/css" height="500px" preserveAspectRatio="none" style="width:1080px;height:500px;background:#FFFFFF;" version="1.1" viewBox="0 0 1080 500" width="1080px" zoomAndPan="magnify"><defs/><g><!--class Emulator--><g id="elem_Emulator"><rect codeLine="1" fill="#F1F1F1" height="105.2038" id="Emulator" rx="2.5" ry="2.5" style="stroke:#181818;stroke-width:0.5;" width="229" x="197" y="7"/><ellipse cx="276.75" cy="23" fill="#ADD1B2" rx="11" ry="11" style="stroke:#181818;stroke-width:1.0;"/><path d="M279.7188,28.6406 Q279.1406,28.9375 278.5,29.0781 Q277.8594,29.2344 277.1563,29.2344 Q274.6563,29.2344 273.3281,27.5938 Q272.0156,25.9375 272.0156,22.8125 Q272.0156,19.6875 273.3281,18.0313 Q274.6563,16.375 277.1563,16.375 Q277.8594,16.375 278.5,16.5313 Q279.1563,16.6875 279.7188,16.9844 L279.7188,19.7031 Q279.0938,19.125 278.5,18.8594 Q277.9063,18.5781 277.2813,18.5781 Q275.9375,18.5781 275.25,19.6563 Q274.5625,20.7188 274.5625,22.8125 Q274.5625,24.9063 275.25,25.9844 Q275.9375,27.0469 277.2813,27.0469 Q277.9063,27.0469 278.5,26.7813 Q279.0938,26.5 279.7188,25.9219 L279.7188,28.6406 Z " fill="#000000"/><text fill="#000000" font-family="sans-serif" font-size="14" lengthAdjust="spacing" textLength="61" x="297.25" y="28.432">Emulator</text><line style="stroke:#181818;stroke-width:0.5;" x1="198" x2="425" y1="39" y2="39"/><line style="stroke:#181818;stroke-width:0.5;" x1="198" x2="425" y1="47" y2="47"/><ellipse cx="208" cy="62.034" fill="#84BE84" rx="3" ry="3" style="stroke:#038048;stroke-width:1.0;"/><text fill="#000000" font-family="sans-serif" font-size="14" lengthAdjust="spacing" textLength="39" x="217" y="65.9659">start()</text><ellipse cx="208" cy="81.1019" fill="#84BE84" rx="3" ry="3" style="stroke:#038048;stroke-width:1.0;"/><text fill="#000000" font-family="sans-serif" font-size="14" lengthAdjust="spacing" textLength="37" x="217" y="85.0339">stop()</text><ellipse cx="208" cy="100.1698" fill="#84BE84" rx="3" ry="3" style="stroke:#038048;stroke-width:1.0;"/><text fill="#000000" font-family="sans-serif" font-size="14" lengthAdjust="spacing" textLength="203" x="217" y="104.1018">loadProgram(program: String)</text></g><!--class FileReader--><g id="elem_FileReader"><rect codeLine="7" fill="#F1F1F1" height="48" id="FileReader" rx="2.5" ry="2.5" style="stroke:#181818;stroke-width:0.5;" width="103" x="260" y="172"/><ellipse cx="275" cy="188" fill="#ADD1B2" rx="11" ry="11" style="stroke:#181818;stroke-width:1.0;"/><path d="M277.9688,193.6406 Q277.3906,193.9375 276.75,194.0781 Q276.1094,194.2344 275.4063,194.2344 Q272.9063,194.2344 271.5781,192.5938 Q270.2656,190.9375 270.2656,187.8125 Q270.2656,184.6875 271.5781,183.0313 Q272.9063,181.375 275.4063,181.375 Q276.1094,181.375 276.75,181.5313 Q277.4063,181.6875 277.9688,181.9844 L277.9688,184.7031 Q277.3438,184.125 276.75,183.8594 Q276.1563,183.5781 275.5313,183.5781 Q274.1875,183.5781 273.5,184.6563 Q272.8125,185.7188 272.8125,187.8125 Q272.8125,189.9063 273.5,190.9844 Q274.1875,192.0469 275.5313,192.0469 Q276.1563,192.0469 276.75,191.7813 Q277.3438,191.5 277.9688,190.9219 L277.9688,193.6406 Z " fill="#000000"/><text fill="#000000" font-family="sans-serif" font-size="14" lengthAdjust="spacing" textLength="71" x="289" y="193.432">FileReader</text><line style="stroke:#181818;stroke-width:0.5;" x1="261" x2="362" y1="204" y2="204"/><line style="stroke:#181818;stroke-width:0.5;" x1="261" x2="362" y1="212" y2="212"/></g><!--class MemoryAdapter--><g id="elem_MemoryAdapter"><rect codeLine="9" fill="#F1F1F1" height="86.1358" id="MemoryAdapter" rx="2.5" ry="2.5" style="stroke:#181818;stroke-width:0.5;" width="230" x="522.5" y="289.5"/><ellipse cx="582.25" cy="305.5" fill="#A9DCDF" rx="11" ry="11" style="stroke:#181818;stroke-width:1.0;"/><path d="M582.3594,300.8438 L581.2031,305.9219 L583.5313,305.9219 L582.3594,300.8438 Z M580.875,298.6094 L583.8594,298.6094 L587.2188,311 L584.7656,311 L584,307.9375 L580.7188,307.9375 L579.9688,311 L577.5313,311 L580.875,298.6094 Z " fill="#000000"/><text fill="#000000" font-family="sans-serif" font-size="14" font-style="italic" lengthAdjust="spacing" textLength="102" x="602.75" y="310.932">MemoryAdapter</text><line style="stroke:#181818;stroke-width:0.5;" x1="523.5" x2="751.5" y1="321.5" y2="321.5"/><line style="stroke:#181818;stroke-width:0.5;" x1="523.5" x2="751.5" y1="329.5" y2="329.5"/><ellipse cx="533.5" cy="344.534" fill="#84BE84" rx="3" ry="3" style="stroke:#038048;stroke-width:1.0;"/><text fill="#000000" font-family="sans-serif" font-size="14" lengthAdjust="spacing" textLength="157" x="542.5" y="348.4659">read(address: Int): Byte</text><ellipse cx="533.5" cy="363.6019" fill="#84BE84" rx="3" ry="3" style="stroke:#038048;stroke-width:1.0;"/><text fill="#000000" font-family="sans-serif" font-size="14" lengthAdjust="spacing" textLength="204" x="542.5" y="367.5339">write(address: Int, value: Byte)</text></g><!--class RAM--><g id="elem_RAM"><rect codeLine="14" fill="#F1F1F1" height="48" id="RAM" rx="2.5" ry="2.5" style="stroke:#181818;stroke-width:0.5;" width="63" x="655" y="445"/><ellipse cx="670" cy="461" fill="#ADD1B2" rx="11" ry="11" style="stroke:#181818;stroke-width:1.0;"/><path d="M672.9688,466.6406 Q672.3906,466.9375 671.75,467.0781 Q671.1094,467.2344 670.4063,467.2344 Q667.9063,467.2344 666.5781,465.5938 Q665.2656,463.9375 665.2656,460.8125 Q665.2656,457.6875 666.5781,456.0313 Q667.9063,454.375 670.4063,454.375 Q671.1094,454.375 671.75,454.5313 Q672.4063,454.6875 672.9688,454.9844 L672.9688,457.7031 Q672.3438,457.125 671.75,456.8594 Q671.1563,456.5781 670.5313,456.5781 Q669.1875,456.5781 668.5,457.6563 Q667.8125,458.7188 667.8125,460.8125 Q667.8125,462.9063 668.5,463.9844 Q669.1875,465.0469 670.5313,465.0469 Q671.1563,465.0469 671.75,464.7813 Q672.3438,464.5 672.9688,463.9219 L672.9688,466.6406 Z " fill="#000000"/><text fill="#000000" font-family="sans-serif" font-size="14" lengthAdjust="spacing" textLength="31" x="684" y="466.432">RAM</text><line style="stroke:#181818;stroke-width:0.5;" x1="656" x2="717" y1="477" y2="477"/><line style="stroke:#181818;stroke-width:0.5;" x1="656" x2="717" y1="485" y2="485"/></g><!--class ROM--><g id="elem_ROM"><rect codeLine="15" fill="#F1F1F1" height="48" id="ROM" rx="2.5" ry="2.5" style="stroke:#181818;stroke-width:0.5;" width="65" x="555" y="445"/><ellipse cx="570" cy="461" fill="#ADD1B2" rx="11" ry="11" style="stroke:#181818;stroke-width:1.0;"/><path d="M572.9688,466.6406 Q572.3906,466.9375 571.75,467.0781 Q571.1094,467.2344 570.4063,467.2344 Q567.9063,467.2344 566.5781,465.5938 Q565.2656,463.9375 565.2656,460.8125 Q565.2656,457.6875 566.5781,456.0313 Q567.9063,454.375 570.4063,454.375 Q571.1094,454.375 571.75,454.5313 Q572.4063,454.6875 572.9688,454.9844 L572.9688,457.7031 Q572.3438,457.125 571.75,456.8594 Q571.1563,456.5781 570.5313,456.5781 Q569.1875,456.5781 568.5,457.6563 Q567.8125,458.7188 567.8125,460.8125 Q567.8125,462.9063 568.5,463.9844 Q569.1875,465.0469 570.5313,465.0469 Q571.1563,465.0469 571.75,464.7813 Q572.3438,464.5 572.9688,463.9219 L572.9688,466.6406 Z " fill="#000000"/><text fill="#000000" font-family="sans-serif" font-size="14" lengthAdjust="spacing" textLength="33" x="584" y="466.432">ROM</text><line style="stroke:#181818;stroke-width:0.5;" x1="556" x2="619" y1="477" y2="477"/><line style="stroke:#181818;stroke-width:0.5;" x1="556" x2="619" y1="485" y2="485"/></g><!--class CPU--><g id="elem_CPU"><rect codeLine="17" fill="#F1F1F1" height="48" id="CPU" rx="2.5" ry="2.5" style="stroke:#181818;stroke-width:0.5;" width="59" x="705" y="172"/><ellipse cx="720" cy="188" fill="#ADD1B2" rx="11" ry="11" style="stroke:#181818;stroke-width:1.0;"/><path d="M722.9688,193.6406 Q722.3906,193.9375 721.75,194.0781 Q721.1094,194.2344 720.4063,194.2344 Q717.9063,194.2344 716.5781,192.5938 Q715.2656,190.9375 715.2656,187.8125 Q715.2656,184.6875 716.5781,183.0313 Q717.9063,181.375 720.4063,181.375 Q721.1094,181.375 721.75,181.5313 Q722.4063,181.6875 722.9688,181.9844 L722.9688,184.7031 Q722.3438,184.125 721.75,183.8594 Q721.1563,183.5781 720.5313,183.5781 Q719.1875,183.5781 718.5,184.6563 Q717.8125,185.7188 717.8125,187.8125 Q717.8125,189.9063 718.5,190.9844 Q719.1875,192.0469 720.5313,192.0469 Q721.1563,192.0469 721.75,191.7813 Q722.3438,191.5 722.9688,190.9219 L722.9688,193.6406 Z " fill="#000000"/><text fill="#000000" font-family="sans-serif" font-size="14" lengthAdjust="spacing" textLength="27" x="734" y="193.432">CPU</text><line style="stroke:#181818;stroke-width:0.5;" x1="706" x2="763" y1="204" y2="204"/><line style="stroke:#181818;stroke-width:0.5;" x1="706" x2="763" y1="212" y2="212"/></g><!--class Register--><g id="elem_Register"><rect codeLine="18" fill="#F1F1F1" height="48" id="Register" rx="2.5" ry="2.5" style="stroke:#181818;stroke-width:0.5;" width="88" x="787.5" y="308.5"/><ellipse cx="802.5" cy="324.5" fill="#ADD1B2" rx="11" ry="11" style="stroke:#181818;stroke-width:1.0;"/><path d="M805.4688,330.1406 Q804.8906,330.4375 804.25,330.5781 Q803.6094,330.7344 802.9063,330.7344 Q800.4063,330.7344 799.0781,329.0938 Q797.7656,327.4375 797.7656,324.3125 Q797.7656,321.1875 799.0781,319.5313 Q800.4063,317.875 802.9063,317.875 Q803.6094,317.875 804.25,318.0313 Q804.9063,318.1875 805.4688,318.4844 L805.4688,321.2031 Q804.8438,320.625 804.25,320.3594 Q803.6563,320.0781 803.0313,320.0781 Q801.6875,320.0781 801,321.1563 Q800.3125,322.2188 800.3125,324.3125 Q800.3125,326.4063 801,327.4844 Q801.6875,328.5469 803.0313,328.5469 Q803.6563,328.5469 804.25,328.2813 Q804.8438,328 805.4688,327.4219 L805.4688,330.1406 Z " fill="#000000"/><text fill="#000000" font-family="sans-serif" font-size="14" lengthAdjust="spacing" textLength="56" x="816.5" y="329.932">Register</text><line style="stroke:#181818;stroke-width:0.5;" x1="788.5" x2="874.5" y1="340.5" y2="340.5"/><line style="stroke:#181818;stroke-width:0.5;" x1="788.5" x2="874.5" y1="348.5" y2="348.5"/></g><!--class InstructionTemplate--><g id="elem_InstructionTemplate"><rect codeLine="20" fill="#F1F1F1" height="48" id="InstructionTemplate" rx="2.5" ry="2.5" style="stroke:#181818;stroke-width:0.5;" width="159" x="911" y="308.5"/><ellipse cx="926" cy="324.5" fill="#A9DCDF" rx="11" ry="11" style="stroke:#181818;stroke-width:1.0;"/><path d="M926.1094,319.8438 L924.9531,324.9219 L927.2813,324.9219 L926.1094,319.8438 Z M924.625,317.6094 L927.6094,317.6094 L930.9688,330 L928.5156,330 L927.75,326.9375 L924.4688,326.9375 L923.7188,330 L921.2813,330 L924.625,317.6094 Z " fill="#000000"/><text fill="#000000" font-family="sans-serif" font-size="14" font-style="italic" lengthAdjust="spacing" textLength="127" x="940" y="329.932">InstructionTemplate</text><line style="stroke:#181818;stroke-width:0.5;" x1="912" x2="1069" y1="340.5" y2="340.5"/><line style="stroke:#181818;stroke-width:0.5;" x1="912" x2="1069" y1="348.5" y2="348.5"/></g><!--class ConcreteInstruction--><g id="elem_ConcreteInstruction"><rect codeLine="21" fill="#F1F1F1" height="48" id="ConcreteInstruction" rx="2.5" ry="2.5" style="stroke:#181818;stroke-width:0.5;" width="166" x="907.5" y="445"/><ellipse cx="922.5" cy="461" fill="#ADD1B2" rx="11" ry="11" style="stroke:#181818;stroke-width:1.0;"/><path d="M925.4688,466.6406 Q924.8906,466.9375 924.25,467.0781 Q923.6094,467.2344 922.9063,467.2344 Q920.4063,467.2344 919.0781,465.5938 Q917.7656,463.9375 917.7656,460.8125 Q917.7656,457.6875 919.0781,456.0313 Q920.4063,454.375 922.9063,454.375 Q923.6094,454.375 924.25,454.5313 Q924.9063,454.6875 925.4688,454.9844 L925.4688,457.7031 Q924.8438,457.125 924.25,456.8594 Q923.6563,456.5781 923.0313,456.5781 Q921.6875,456.5781 921,457.6563 Q920.3125,458.7188 920.3125,460.8125 Q920.3125,462.9063 921,463.9844 Q921.6875,465.0469 923.0313,465.0469 Q923.6563,465.0469 924.25,464.7813 Q924.8438,464.5 925.4688,463.9219 L925.4688,466.6406 Z " fill="#000000"/><text fill="#000000" font-family="sans-serif" font-size="14" lengthAdjust="spacing" textLength="134" x="936.5" y="466.432">ConcreteInstruction</text><line style="stroke:#181818;stroke-width:0.5;" x1="908.5" x2="1072.5" y1="477" y2="477"/><line style="stroke:#181818;stroke-width:0.5;" x1="908.5" x2="1072.5" y1="485" y2="485"/></g><!--class Observable--><g id="elem_Observable"><rect codeLine="23" fill="#F1F1F1" height="105.2038" id="Observable" rx="2.5" ry="2.5" style="stroke:#181818;stroke-width:0.5;" width="275" x="212" y="280"/><ellipse cx="309.75" cy="296" fill="#B4A7E5" rx="11" ry="11" style="stroke:#181818;stroke-width:1.0;"/><path d="M305.6719,291.7656 L305.6719,289.6094 L313.0625,289.6094 L313.0625,291.7656 L310.5938,291.7656 L310.5938,299.8438 L313.0625,299.8438 L313.0625,302 L305.6719,302 L305.6719,299.8438 L308.1406,299.8438 L308.1406,291.7656 L305.6719,291.7656 Z " fill="#000000"/><text fill="#000000" font-family="sans-serif" font-size="14" font-style="italic" lengthAdjust="spacing" textLength="71" x="330.25" y="301.432">Observable</text><line style="stroke:#181818;stroke-width:0.5;" x1="213" x2="486" y1="312" y2="312"/><line style="stroke:#181818;stroke-width:0.5;" x1="213" x2="486" y1="320" y2="320"/><ellipse cx="223" cy="335.034" fill="#84BE84" rx="3" ry="3" style="stroke:#038048;stroke-width:1.0;"/><text fill="#000000" font-family="sans-serif" font-size="14" lengthAdjust="spacing" textLength="225" x="232" y="338.9659">addObserver(observer: Observer)</text><ellipse cx="223" cy="354.1019" fill="#84BE84" rx="3" ry="3" style="stroke:#038048;stroke-width:1.0;"/><text fill="#000000" font-family="sans-serif" font-size="14" lengthAdjust="spacing" textLength="249" x="232" y="358.0339">removeObserver(observer: Observer)</text><ellipse cx="223" cy="373.1698" fill="#84BE84" rx="3" ry="3" style="stroke:#038048;stroke-width:1.0;"/><text fill="#000000" font-family="sans-serif" font-size="14" lengthAdjust="spacing" textLength="115" x="232" y="377.1018">notifyObservers()</text></g><!--class BufferObserver--><g id="elem_BufferObserver"><rect codeLine="29" fill="#F1F1F1" height="67.0679" id="BufferObserver" rx="2.5" ry="2.5" style="stroke:#181818;stroke-width:0.5;" width="126" x="50.5" y="299"/><ellipse cx="65.5" cy="315" fill="#B4A7E5" rx="11" ry="11" style="stroke:#181818;stroke-width:1.0;"/><path d="M61.4219,310.7656 L61.4219,308.6094 L68.8125,308.6094 L68.8125,310.7656 L66.3438,310.7656 L66.3438,318.8438 L68.8125,318.8438 L68.8125,321 L61.4219,321 L61.4219,318.8438 L63.8906,318.8438 L63.8906,310.7656 L61.4219,310.7656 Z " fill="#000000"/><text fill="#000000" font-family="sans-serif" font-size="14" font-style="italic" lengthAdjust="spacing" textLength="94" x="79.5" y="320.432">BufferObserver</text><line style="stroke:#181818;stroke-width:0.5;" x1="51.5" x2="175.5" y1="331" y2="331"/><line style="stroke:#181818;stroke-width:0.5;" x1="51.5" x2="175.5" y1="339" y2="339"/><ellipse cx="61.5" cy="354.034" fill="#84BE84" rx="3" ry="3" style="stroke:#038048;stroke-width:1.0;"/><text fill="#000000" font-family="sans-serif" font-size="14" lengthAdjust="spacing" textLength="56" x="70.5" y="357.9659">update()</text></g><!--class Screen--><g id="elem_Screen"><rect codeLine="33" fill="#F1F1F1" height="48" id="Screen" rx="2.5" ry="2.5" style="stroke:#181818;stroke-width:0.5;" width="78" x="16.5" y="445"/><ellipse cx="31.5" cy="461" fill="#ADD1B2" rx="11" ry="11" style="stroke:#181818;stroke-width:1.0;"/><path d="M34.4688,466.6406 Q33.8906,466.9375 33.25,467.0781 Q32.6094,467.2344 31.9063,467.2344 Q29.4063,467.2344 28.0781,465.5938 Q26.7656,463.9375 26.7656,460.8125 Q26.7656,457.6875 28.0781,456.0313 Q29.4063,454.375 31.9063,454.375 Q32.6094,454.375 33.25,454.5313 Q33.9063,454.6875 34.4688,454.9844 L34.4688,457.7031 Q33.8438,457.125 33.25,456.8594 Q32.6563,456.5781 32.0313,456.5781 Q30.6875,456.5781 30,457.6563 Q29.3125,458.7188 29.3125,460.8125 Q29.3125,462.9063 30,463.9844 Q30.6875,465.0469 32.0313,465.0469 Q32.6563,465.0469 33.25,464.7813 Q33.8438,464.5 34.4688,463.9219 L34.4688,466.6406 Z " fill="#000000"/><text fill="#000000" font-family="sans-serif" font-size="14" lengthAdjust="spacing" textLength="46" x="45.5" y="466.432">Screen</text><line style="stroke:#181818;stroke-width:0.5;" x1="17.5" x2="93.5" y1="477" y2="477"/><line style="stroke:#181818;stroke-width:0.5;" x1="17.5" x2="93.5" y1="485" y2="485"/></g><!--class ScreenBuffer--><g id="elem_ScreenBuffer"><rect codeLine="34" fill="#F1F1F1" height="48" id="ScreenBuffer" rx="2.5" ry="2.5" style="stroke:#181818;stroke-width:0.5;" width="120" x="289.5" y="445"/><ellipse cx="304.5" cy="461" fill="#ADD1B2" rx="11" ry="11" style="stroke:#181818;stroke-width:1.0;"/><path d="M307.4688,466.6406 Q306.8906,466.9375 306.25,467.0781 Q305.6094,467.2344 304.9063,467.2344 Q302.4063,467.2344 301.0781,465.5938 Q299.7656,463.9375 299.7656,460.8125 Q299.7656,457.6875 301.0781,456.0313 Q302.4063,454.375 304.9063,454.375 Q305.6094,454.375 306.25,454.5313 Q306.9063,454.6875 307.4688,454.9844 L307.4688,457.7031 Q306.8438,457.125 306.25,456.8594 Q305.6563,456.5781 305.0313,456.5781 Q303.6875,456.5781 303,457.6563 Q302.3125,458.7188 302.3125,460.8125 Q302.3125,462.9063 303,463.9844 Q303.6875,465.0469 305.0313,465.0469 Q305.6563,465.0469 306.25,464.7813 Q306.8438,464.5 307.4688,463.9219 L307.4688,466.6406 Z " fill="#000000"/><text fill="#000000" font-family="sans-serif" font-size="14" lengthAdjust="spacing" textLength="88" x="318.5" y="466.432">ScreenBuffer</text><line style="stroke:#181818;stroke-width:0.5;" x1="290.5" x2="408.5" y1="477" y2="477"/><line style="stroke:#181818;stroke-width:0.5;" x1="290.5" x2="408.5" y1="485" y2="485"/></g><!--reverse link Observable to ScreenBuffer--><g id="link_Observable_ScreenBuffer"><path codeLine="36" d="M349.5,403.12 C349.5,423.71 349.5,428.38 349.5,444.79 " fill="none" id="Observable-backto-ScreenBuffer" style="stroke:#181818;stroke-width:1.0;"/><polygon fill="none" points="349.5,385.12,343.5,403.12,355.5,403.12,349.5,385.12" style="stroke:#181818;stroke-width:1.0;"/></g><!--reverse link ScreenBuffer to BufferObserver--><g id="link_ScreenBuffer_BufferObserver"><path codeLine="37" d="M293.5894,439.3714 C262.4194,423.1914 230.87,406.26 194.5,385 C184.43,379.11 173.81,372.6 163.69,366.23 " fill="none" id="ScreenBuffer-backto-BufferObserver" style="stroke:#181818;stroke-width:1.0;"/><polygon fill="#181818" points="304.24,444.9,300.7576,438.5855,293.5894,439.3714,297.0719,445.6859,304.24,444.9" style="stroke:#181818;stroke-width:1.0;"/></g><!--reverse link BufferObserver to Screen--><g id="link_BufferObserver_Screen"><path codeLine="38" d="M92.3333,382.5891 C81.8733,406.8491 74.96,422.86 65.59,444.59 " fill="none" id="BufferObserver-backto-Screen" style="stroke:#181818;stroke-width:1.0;"/><polygon fill="none" points="99.46,366.06,86.8236,380.2135,97.843,384.9646,99.46,366.06" style="stroke:#181818;stroke-width:1.0;"/></g><!--reverse link Emulator to Screen--><g id="link_Emulator_Screen"><path codeLine="39" d="M195.6935,118.2256 C132.7135,155.3656 68.51,205.85 32.5,280 C6,334.57 29.64,408.13 44.92,444.97 " fill="none" id="Emulator-backto-Screen" style="stroke:#181818;stroke-width:1.0;"/><polygon fill="#181818" points="206.03,112.13,198.8299,111.7323,195.6935,118.2256,202.8936,118.6233,206.03,112.13" style="stroke:#181818;stroke-width:1.0;"/></g><!--link BufferObserver to Observable--><g id="link_BufferObserver_Observable"><path codeLine="40" d="M176.65,332.5 C188.35,332.5 200.06,332.5 211.76,332.5 " fill="none" id="BufferObserver-Observable" style="stroke:#181818;stroke-width:1.0;"/></g><!--reverse link Emulator to FileReader--><g id="link_Emulator_FileReader"><path codeLine="42" d="M311.5,118.12 C311.5,138.71 311.5,155.38 311.5,171.79 " fill="none" id="Emulator-backto-FileReader" style="stroke:#181818;stroke-width:1.0;"/><polygon fill="#181818" points="311.5,112.12,307.5,121.12,311.5,117.12,315.5,121.12,311.5,112.12" style="stroke:#181818;stroke-width:1.0;"/></g><!--reverse link Emulator to CPU--><g id="link_Emulator_CPU"><path codeLine="43" d="M437.6861,100.6252 C532.1261,130.6452 647.93,167.47 704.84,185.57 " fill="none" id="Emulator-backto-CPU" style="stroke:#181818;stroke-width:1.0;"/><polygon fill="#181818" points="426.25,96.99,430.7563,102.6197,437.6861,100.6252,433.1798,94.9956,426.25,96.99" style="stroke:#181818;stroke-width:1.0;"/></g><!--reverse link CPU to Register--><g id="link_CPU_Register"><path codeLine="44" d="M758.1893,229.8529 C775.9593,254.4929 796.91,283.54 814.72,308.23 " fill="none" id="CPU-backto-Register" style="stroke:#181818;stroke-width:1.0;"/><polygon fill="#181818" points="751.17,220.12,751.4353,227.3262,758.1893,229.8529,757.9239,222.6467,751.17,220.12" style="stroke:#181818;stroke-width:1.0;"/></g><!--reverse link CPU to MemoryAdapter--><g id="link_CPU_MemoryAdapter"><path codeLine="45" d="M710.8082,229.8511 C697.0982,248.8511 684.35,266.54 667.85,289.42 " fill="none" id="CPU-backto-MemoryAdapter" style="stroke:#181818;stroke-width:1.0;"/><polygon fill="#181818" points="717.83,220.12,711.0754,222.645,710.8082,229.8511,717.5628,227.3262,717.83,220.12" style="stroke:#181818;stroke-width:1.0;"/></g><!--reverse link CPU to InstructionTemplate--><g id="link_CPU_InstructionTemplate"><path codeLine="46" d="M774.7779,217.9238 C806.7379,234.5338 848.45,256.28 893.5,280 C911.05,289.24 930.34,299.47 947.08,308.36 " fill="none" id="CPU-backto-InstructionTemplate" style="stroke:#181818;stroke-width:1.0;"/><polygon fill="#181818" points="764.13,212.39,767.6093,218.7062,774.7779,217.9238,771.2985,211.6076,764.13,212.39" style="stroke:#181818;stroke-width:1.0;"/></g><!--reverse link InstructionTemplate to ConcreteInstruction--><g id="link_InstructionTemplate_ConcreteInstruction"><path codeLine="48" d="M990.5,374.62 C990.5,399.26 990.5,420.04 990.5,444.73 " fill="none" id="InstructionTemplate-backto-ConcreteInstruction" style="stroke:#181818;stroke-width:1.0;"/><polygon fill="none" points="990.5,356.62,984.5,374.62,996.5,374.62,990.5,356.62" style="stroke:#181818;stroke-width:1.0;"/></g><!--reverse link MemoryAdapter to RAM--><g id="link_MemoryAdapter_RAM"><path codeLine="50" d="M659.0339,392.6017 C667.3439,415.4017 671.12,425.78 678.03,444.75 " fill="none" id="MemoryAdapter-backto-RAM" style="stroke:#181818;stroke-width:1.0;"/><polygon fill="none" points="652.87,375.69,653.3966,394.6564,664.6711,390.5471,652.87,375.69" style="stroke:#181818;stroke-width:1.0;"/></g><!--reverse link MemoryAdapter to ROM--><g id="link_MemoryAdapter_ROM"><path codeLine="51" d="M615.5452,392.5609 C607.0652,415.3609 603.19,425.78 596.14,444.75 " fill="none" id="MemoryAdapter-backto-ROM" style="stroke:#181818;stroke-width:1.0;"/><polygon fill="none" points="621.82,375.69,609.9216,390.4693,621.1688,394.6525,621.82,375.69" style="stroke:#181818;stroke-width:1.0;"/></g><!--reverse link MemoryAdapter to ScreenBuffer--><g id="link_MemoryAdapter_ScreenBuffer"><path codeLine="52" d="M531.2518,383.1185 C482.2318,406.0185 439.75,425.85 399.01,444.88 " fill="none" id="MemoryAdapter-backto-ScreenBuffer" style="stroke:#181818;stroke-width:1.0;"/><polygon fill="none" points="547.56,375.5,528.7123,377.6824,533.7913,388.5546,547.56,375.5" style="stroke:#181818;stroke-width:1.0;"/></g><!--SRC=[XLBDReCm3BxdANA4Rdq1r4jRRL8FLQjsUu0KJ1Kf9CWnJ6ZRkoyGACc6j5Fipuw_pp-v4jRobwfHWWpoJyRvaoM1bAJUDBMtb1756SqTHPNK_itubL3gUyg-6Sk7GgzImGL40QwK0yND4egSk8yUeJBORGjH4unSw98JKHG8rcRye2dD-AuZw6CVA0cYu3DlXMh0fmIqb-snvnkTq-2Ctlxy7eJWBYqjYpjevpOvIQFVeAhTF63-k3SwHo08aXYJsfKgHGxyTBE0hRWfy5qvpHu2JCneP7o2KjzuPLhuBqiRacKtGJOPUfvvTqrP0avXpztKXPEU1DEvEkcWvsQyx_yEamZaRxxMwoY1HTah5ur9sIyDGG7sEAlLZ0LSQ_MdsFnbuxxCrnINSZjb_LvxUrhf0uYEx84kR9UnfPKF-XVN7L_laEVkRX4-BSBX97y0]--></g></svg>